<?xml version="1.0" standalone="no"?> <!DOCTYPE svg PUBLIC "-//W3C//DTD SVG 1.0//EN" "http://www.w3.org/TR/2001/REC-SVG-20010904/DTD/svg10.dtd" >
<svg xmlns="http://www.w3.org/2000/svg" width="100%" height="100%">
<defs>
<font horiz-adv-x="545" id="GuardianEgyp-Medium-Web">
<font-face
    font-family=""
    units-per-em="1000"
    panose-1="2 6 6 3 5 5 3 6 8 3"
    ascent="790"
    descent="-210"
    alphabetic="0" />
<missing-glyph horiz-adv-x="496" />
<glyph unicode=" " glyph-name="space" horiz-adv-x="184" />
<glyph unicode="!" glyph-name="exclam" horiz-adv-x="259" d="M129 -13Q98 -13 78 7T58 57Q58 85 78 105T129 126Q160 126 180 106T200 57Q200 28 180 8T129 -13ZM59 693H198L168 200H87L59 693Z" />
<glyph unicode="&quot;" glyph-name="quotedbl" horiz-adv-x="404" d="M50 693H179L155 479H73L50 693ZM225 693H354L330 479H248L225 693Z" />
<glyph unicode="#" glyph-name="numbersign" horiz-adv-x="517" d="M61 512H157L185 693H260L231 512H338L367 693H441L413 512H491V403H395L379 301H458V192H362L331 0H257L287 192H180L150 0H75L106 192H28V301H123L140 403H61V512ZM197 301H304L321 403H214L197 301Z" />
<glyph unicode="$" glyph-name="dollar" horiz-adv-x="530" d="M188 -10Q99 -2 39 22L31 185H105L136 90Q163 76 197 70L224 308L187 322Q118 345 78 388T37 512Q37 552 51 587T93 649T165 690T269 706L276 765H346L339 703Q381 698 410 690T459 675L467 531H395L371
611Q363 613 353 616T330 622L306 410L331 401Q368 388 399 373T452 334T488 280T501 203Q501 159 487 121T443 54T367 8T258 -12L246 -117H176L188 -10ZM382 172Q382 213 360 237T291 282L267 66Q326 70 354 100T382 172ZM150 539Q150 501 171 478T238 436L260
629Q212 627 181 604T150 539Z" />
<glyph unicode="%" glyph-name="percent" horiz-adv-x="860" d="M200 375Q238 375 253 407T268 507Q268 575 254 610T201 646Q162 646 147 612T132 511Q132 445 147 410T200 375ZM200 316Q164 316 132 328T76 363T38 423T24 507Q24 557 38 594T78 656T134 693T201
705Q235 705 266 693T322 657T362 597T377 512Q377 463 363 426T324 365T267 328T200 316ZM623 713H706L229 -40H146L623 713ZM659 47Q697 47 712 79T727 179Q727 246 713 282T660 318Q621 318 606 284T591 183Q591 117 606 82T659 47ZM659 -12Q623 -12 591 0T535
35T497 95T483 179Q483 229 497 266T537 328T593 365T660 377Q693 377 725 365T781 329T821 269T836 184Q836 135 822 98T783 37T726 0T659 -12Z" />
<glyph unicode="&amp;" glyph-name="ampersand" horiz-adv-x="707" d="M260 -12Q205 -12 161 1T86 39T37 99T20 180Q20 216 31 244T63 297T113 341T178 381Q150 418 136 452T121 527Q121 567 136 600T177 656T239 692T319 705Q357 705 389 695T444 666T480 621T493
560Q493 527 481 502T447 455T397 417T335 382L495 197Q510 223 520 250T538 305L471 323V382H688V323L626 305Q615 263 595 221T545 140L596 81L676 62V0H501L456 52Q414 23 366 6T260 -12ZM291 69Q358 69 411 105L221 328Q187 301 172 270T156 197Q156 142 191
106T291 69ZM243 540Q243 506 257 481T294 429Q342 456 361 484T381 556Q381 594 364 613T317 632Q283 632 263 608T243 540Z" />
<glyph unicode="&apos;" glyph-name="quotesingle" horiz-adv-x="229" d="M50 693H179L155 479H73L50 693Z" />
<glyph unicode="(" glyph-name="parenleft" horiz-adv-x="330" d="M271 -145Q229 -112 187 -70T110 26T55 148T34 302Q34 380 55 447T110 570T186 671T271 749L315 708Q283 672 255 630T206 539T173 436T161 321Q161 244 173 182T205 69T254 -24T315 -104L271 -145V-145Z" />
<glyph unicode=")" glyph-name="parenright" horiz-adv-x="330" d="M14 -104Q46 -68 74 -26T124 65T157 168T169 284Q169 361 157 422T125 535T76 628T14 708L59 749Q101 716 143 674T220 578T275 456T296 302Q296 224 275 157T220 34T144 -67T59 -145L14 -104Z" />
<glyph unicode="*" glyph-name="asterisk" horiz-adv-x="375" d="M165 496L73 418L29 495L142 535L29 575L73 652L165 574L140 693H235L209 574L302 652L346 575L233 535L346 495L302 418L209 496L235 378H140L165 496Z" />
<glyph unicode="+" glyph-name="plus" horiz-adv-x="531" d="M53 382H222V558H309V382H478V299H309V123H222V299H53V382Z" />
<glyph unicode="," glyph-name="comma" horiz-adv-x="235" d="M44 -95Q51 -43 55 8T59 124H189Q182 62 168 9T128 -95H44V-95Z" />
<glyph unicode="-" glyph-name="hyphen" horiz-adv-x="312" d="M38 336H274V236H38V336Z" />
<glyph unicode="." glyph-name="period" horiz-adv-x="235" d="M116 -14Q84 -14 62 7T40 60Q40 92 62 113T116 135Q149 135 171 114T193 60Q193 29 171 8T116 -14Z" />
<glyph unicode="/" glyph-name="slash" horiz-adv-x="353" d="M241 733H330L90 -120H1L241 733Z" />
<glyph unicode="0" glyph-name="zero" horiz-adv-x="640" d="M320 66Q395 66 430 132T465 341Q465 487 431 556T321 626Q246 626 210 558T174 349Q174 203 208 135T320 66ZM319 -13Q257 -13 205 8T114 72T54 183T32 342Q32 437 55 505T118 618T210 684T322 705Q381
705 433 684T523 620T584 509T607 349Q607 255 585 187T523 75T432 9T319 -13Z" />
<glyph unicode="1" glyph-name="one" horiz-adv-x="396" d="M37 62L135 79V568L28 559V621L221 701H274V79L371 62V0H37V62Z" />
<glyph unicode="2" glyph-name="two" horiz-adv-x="524" d="M11 72L178 237Q211 270 238 300T284 359T314 419T325 483Q325 541 292 572T185 604Q144 604 108 596T38 575V648Q75 670 128 687T241 705Q346 705 406 654T467 501Q467 421 410 347T253 191L147 103V101H378L419
187H486L473 0H11V72Z" />
<glyph unicode="3" glyph-name="three" horiz-adv-x="507" d="M216 -11Q150 -11 102 3T20 36V107Q54 95 93 88T177 80Q249 80 289 109T330 199Q330 267 295 293T184 320H132V400H175Q311 400 311 506Q311 560 281 587T184 614Q142 614 111 609T48 593V662Q83 680
130 692T231 705Q333 705 389 661T446 532Q446 469 410 428T314 369V365Q346 359 375 347T426 313T461 262T474 189Q474 95 406 42T216 -11Z" />
<glyph unicode="4" glyph-name="four" horiz-adv-x="582" d="M237 62L324 78V200H18V273L344 693H457V280H555V200H457V78L542 62V0H237V62ZM324 280V544H320L121 283V280H324Z" />
<glyph unicode="5" glyph-name="five" horiz-adv-x="516" d="M209 -11Q145 -11 101 4T22 38V108Q57 95 93 88T174 80Q246 80 290 112T334 214Q334 280 292 314T169 348Q140 348 111 344T59 335L84 693H455L445 588H162L149 426Q165 429 187 431T235 434Q348 434
413 378T478 220Q478 169 460 127T408 54T324 6T209 -11Z" />
<glyph unicode="6" glyph-name="six" horiz-adv-x="585" d="M302 -13Q239 -13 189 10T105 75T52 179T33 317Q33 422 60 495T132 615T236 683T358 705Q412 705 451 695T515 668V596Q492 605 458 609T385 614Q346 614 311 604T247 568T199 496T175 382Q205 402 248
417T344 432Q391 432 430 418T497 376T540 310T556 223Q556 174 540 131T491 56T412 6T302 -13ZM301 66Q361 66 388 105T416 213Q416 286 384 316T298 347Q258 347 228 339T174 315V295Q174 244 180 202T201 130T240 83T301 66Z" />
<glyph unicode="7" glyph-name="seven" horiz-adv-x="509" d="M406 584V588H117L89 514H19L28 693H493V607L244 0H91L406 584Z" />
<glyph unicode="8" glyph-name="eight" horiz-adv-x="587" d="M293 -13Q165 -13 98 36T30 173Q30 205 42 232T74 280T122 318T179 346Q116 376 87 418T57 521Q57 560 73 593T120 652T194 691T294 705Q403 705 465 660T528 536Q528 505 518 481T489 437T448 404T399
378Q473 349 515 306T557 191Q557 145 540 108T490 43T407 2T293 -13ZM287 64Q358 64 391 92T425 171Q425 198 414 218T380 253T323 283T244 313Q202 292 176 259T150 177Q150 123 183 94T287 64ZM328 408Q360 426 384 454T409 529Q409 583 377 606T297 629Q246
629 216 604T185 538Q185 512 193 494T219 460T263 433T328 408Z" />
<glyph unicode="9" glyph-name="nine" horiz-adv-x="585" d="M221 -13Q170 -13 132 -2T66 26V97Q91 89 125 84T194 78Q240 78 278 88T343 125T388 196T410 310Q380 291 337 276T240 260Q193 260 154 274T87 316T44 382T29 469Q29 518 45 561T94 636T173 686T283
705Q347 705 397 682T481 617T534 513T552 375Q552 272 528 199T461 78T356 9T221 -13ZM287 346Q327 346 356 354T411 377Q412 381 412 387T412 397Q412 448 406 490T384 562T345 609T284 626Q225 626 197 587T169 479Q169 405 201 376T287 346Z" />
<glyph unicode=":" glyph-name="colon" horiz-adv-x="241" d="M120 -14Q88 -14 66 7T43 60Q43 92 65 113T120 135Q153 135 175 114T197 60Q197 29 175 8T120 -14ZM120 280Q88 280 66 301T43 355Q43 387 65 408T120 430Q153 430 175 409T197 355Q197 323 175 302T120 280Z" />
<glyph unicode=";" glyph-name="semicolon" horiz-adv-x="241" d="M43 -95Q50 -43 53 8T57 124H188Q180 62 166 9T126 -95H43ZM120 280Q88 280 66 301T44 355Q44 387 66 408T120 430Q153 430 175 409T197 355Q197 323 175 302T120 280Z" />
<glyph unicode="&lt;" glyph-name="less" horiz-adv-x="504" d="M55 298V372L440 546V452L161 335L440 217V123L55 298Z" />
<glyph unicode="=" glyph-name="equal" horiz-adv-x="524" d="M55 258H469V175H55V258ZM55 440H469V357H55V440Z" />
<glyph unicode="&gt;" glyph-name="greater" horiz-adv-x="504" d="M63 217L343 334L63 452V546L449 372V298L63 123V217Z" />
<glyph unicode="?" glyph-name="question" horiz-adv-x="423" d="M129 199Q123 213 117 232T111 278Q111 299 116 315T133 345T160 373T197 404Q229 429 245 453T261 519Q261 571 230 595T146 620Q107 620 80 616T22 601V668Q56 685 95 695T186 705Q229 705 267
696T333 665T378 610T394 525Q394 492 386 468T363 423T326 384T274 347Q256 335 241 325T215 305T198 283T191 255Q191 244 192 231T199 199H129ZM166 -13Q135 -13 115 7T95 57Q95 85 115 105T166 126Q197 126 217 106T237 57Q237 28 217 8T166 -13Z" />
<glyph unicode="@" glyph-name="at" horiz-adv-x="889" d="M443 -155Q346 -155 271 -130T145 -57T66 59T39 214Q39 308 71 392T162 541T303 642T487 680Q570 680 637 656T753 586T827 475T853 327Q853 259 834 204T782 109T705 49T608 27Q556 27 530 45T494 93H488Q461
65 430 50T361 35Q335 35 312 45T272 74T244 123T233 192Q233 251 249 303T296 395T369 458T464 481Q486 481 502 478T532 470T557 459T579 446L603 472H666L602 148Q596 118 603 105T630 92Q661 92 688 107T737 152T770 225T782 324Q782 464 708 542T486 621Q397
621 328 589T212 502T139 373T114 216Q114 62 196 -16T445 -95Q511 -95 571 -84T674 -59V-112Q629 -132 571 -143T443 -155ZM410 110Q435 110 454 121T489 146L533 379Q525 395 510 406T469 418Q439 418 417 400T380 350T358 279T350 194Q350 149 365 130T410 110Z"
/>
<glyph unicode="A" glyph-name="A" horiz-adv-x="682" d="M1 63L65 80L282 693H405L617 80L681 63V0H393V62L467 80L423 217H207L161 80L237 62V0H1V63ZM229 285H402L320 541H315L229 285Z" />
<glyph unicode="B" glyph-name="B" horiz-adv-x="626" d="M19 62L100 80V613L20 631V693H327Q448 693 509 652T571 522Q571 494 564 469T541 422T500 386T438 363V358Q529 345 567 304T606 186Q606 145 591 111T544 52T464 14T350 0H19V62ZM326 77Q392 77 425
104T459 197Q459 266 426 294T328 322H238V77H326ZM312 391Q364 391 397 414T430 499Q430 535 422 557T399 593T362 611T311 616H238V391H312Z" />
<glyph unicode="C" glyph-name="C" horiz-adv-x="621" d="M357 -12Q284 -12 223 7T118 69T50 177T25 339Q25 442 54 512T133 625T245 686T374 705Q439 705 491 697T575 677L581 494H507L469 601Q452 609 425 616T365 623Q265 623 219 554T172 359Q172 210 219
141T373 71Q405 71 430 78T475 96L512 210H587L580 25Q542 8 489 -2T357 -12Z" />
<glyph unicode="D" glyph-name="D" horiz-adv-x="690" d="M19 62L100 80V613L20 631V693H319Q497 693 581 611T665 362Q665 181 580 91T327 0H19V62ZM323 78Q372 78 408 91T469 134T506 217T519 347Q519 435 505 488T463 569T395 606T303 615H239V78H323Z" />
<glyph unicode="E" glyph-name="E" horiz-adv-x="606" d="M19 62L100 80V613L20 631V693H559L569 507H497L457 617H238V392H343L367 475H428V235H367L343 320H238V76H464L516 212H588L577 0H19V62Z" />
<glyph unicode="F" glyph-name="F" horiz-adv-x="601" d="M19 62L100 80V613L20 631V693H563L573 497H501L461 615H239V379H348L370 463H431V222H369L348 308H239V80L328 62V0H19V62Z" />
<glyph unicode="G" glyph-name="G" horiz-adv-x="676" d="M380 -13Q297 -13 232 6T120 68T50 177T25 339Q25 442 55 512T135 625T250 686T384 705Q452 705 504 697T589 677L597 494H523L484 600Q464 611 437 617T372 623Q270 623 221 555T172 359Q172 210 218
140T374 69Q404 69 426 74T466 84V247L385 264V326H666V264L599 247V21Q557 6 501 -3T380 -13Z" />
<glyph unicode="H" glyph-name="H" horiz-adv-x="741" d="M19 62L100 80V613L19 631V693H315V631L238 613V391H505V613L427 631V693H722V631L643 613V80L723 62V0H427V62L505 79V318H238V79L315 62V0H19V62Z" />
<glyph unicode="I" glyph-name="I" horiz-adv-x="338" d="M19 62L100 80V613L19 631V693H319V631L239 613V80L319 62V0H19V62Z" />
<glyph unicode="J" glyph-name="J" horiz-adv-x="430" d="M141 -9Q91 -9 61 -1T11 18V97Q34 91 53 87T108 82Q151 82 176 102T202 183V613L121 631V693H420V631L341 613V172Q341 84 290 38T141 -9Z" />
<glyph unicode="K" glyph-name="K" horiz-adv-x="684" d="M274 310V357L484 613L420 631V693H659V631L595 613L390 372L602 80L670 62V0H494L274 310ZM19 62L100 80V613L19 631V693H318V631L238 614V79L318 62V0H19V62Z" />
<glyph unicode="L" glyph-name="L" horiz-adv-x="573" d="M19 62L100 80V613L19 631V693H326V631L238 614V77H440L489 234H560L547 0H19V62Z" />
<glyph unicode="M" glyph-name="M" horiz-adv-x="895" d="M19 61L100 80V613L19 631V693H292L439 225H443L595 693H876V631L789 613V80L876 62V0H585V62L654 80V586H651L466 24H377L196 584H192V80L263 62V0H19V61Z" />
<glyph unicode="N" glyph-name="N" horiz-adv-x="718" d="M19 61L100 80V613L19 631V693H264L537 223H542V612L461 631V693H707V632L635 613V0H518L198 553H194V80L276 61V0H19V61Z" />
<glyph unicode="O" glyph-name="O" horiz-adv-x="694" d="M347 70Q436 70 479 141T523 338Q523 486 479 555T346 624Q302 624 269 606T214 552T182 468T171 356Q171 217 210 144T347 70ZM345 -12Q277 -12 219 10T118 78T50 190T25 345Q25 439 53 507T126 619T230
684T349 705Q416 705 474 683T576 616T643 505T668 350Q668 256 641 188T568 76T464 10T345 -12Z" />
<glyph unicode="P" glyph-name="P" horiz-adv-x="588" d="M19 62L100 80V613L19 631V693H312Q385 693 436 680T519 641T565 579T579 497Q579 442 562 403T513 338T441 301T352 289Q341 289 329 290T306 292T289 294T282 295V358Q283 358 296 357T326 356Q382 356
410 389T439 487Q439 554 411 583T320 612H238V80L334 62V0H19V62Z" />
<glyph unicode="Q" glyph-name="Q" horiz-adv-x="694" d="M265 -7Q224 6 181 29T104 94T47 196T25 345Q25 439 53 507T126 619T230 684T349 705Q416 705 474 683T576 616T643 505T668 350Q668 277 651 223T605 129T537 66T454 29V26L691 -19L661 -130L265 -7ZM349
70Q438 70 480 141T523 338Q523 486 479 555T346 624Q302 624 269 606T214 552T182 468T171 356Q171 287 180 234T211 144T266 89T349 70Z" />
<glyph unicode="R" glyph-name="R" horiz-adv-x="663" d="M19 62L101 80V612L21 631V693H336Q467 693 527 642T587 499Q587 462 576 435T547 388T504 354T454 331V327L599 79L663 61V0H491L324 298H240V80L316 62V0H19V62ZM327 369Q361 369 383 379T420 406T440
447T446 497Q446 558 418 585T324 613H240V369H327Z" />
<glyph unicode="S" glyph-name="S" horiz-adv-x="537" d="M253 -12Q192 -12 138 -3T46 22L38 191H114L144 95Q167 83 193 76T257 69Q319 69 349 99T380 172Q380 196 372 213T349 243T311 268T260 291L193 319Q160 332 133 348T87 386T58 439T47 510Q47 551 61
587T104 649T178 691T286 706Q351 706 394 698T467 680L475 523H400L376 604Q362 611 340 618T279 626Q231 626 200 605T168 539Q168 500 193 477T270 434L338 406Q376 391 407 375T462 337T497 282T510 205Q510 160 495 120T448 51T368 5T253 -12Z" />
<glyph unicode="T" glyph-name="T" horiz-adv-x="620" d="M156 62L241 80V616H119L84 481H10L20 693H600L610 481H536L501 616H380V80L464 62V0H156V62Z" />
<glyph unicode="U" glyph-name="U" horiz-adv-x="691" d="M354 -13Q285 -13 234 3T150 49T100 121T83 215V613L5 631V693H301V631L222 614V231Q222 147 262 110T373 73Q446 73 485 110T524 231V613L445 630V693H686V631L616 613V225Q616 171 600 128T551 53T469
4T354 -13Z" />
<glyph unicode="V" glyph-name="V" horiz-adv-x="672" d="M65 613L6 631V693H286V631L211 613L357 156H362L509 613L435 631V693H666V631L606 613L396 0H276L65 613Z" />
<glyph unicode="W" glyph-name="W" horiz-adv-x="964" d="M63 613L7 631V693H273V631L204 613L311 179H316L455 693H547L687 184H691L796 613L725 631V693H957V631L894 613L734 0H610L483 481H479L347 0H223L63 613Z" />
<glyph unicode="X" glyph-name="X" horiz-adv-x="689" d="M19 62L85 79L264 353L96 613L27 631V693H321V631L259 615L372 423L484 615L418 631V693H655V631L588 613L424 354L603 80L671 62V0H381V62L446 78L316 289L189 79L255 61V0H19V62Z" />
<glyph unicode="Y" glyph-name="Y" horiz-adv-x="633" d="M172 62L254 80V296L62 613L4 631V693H272V631L209 614L347 375H351L479 614L413 631V693H629V631L572 613L393 297V80L473 62V0H172V62Z" />
<glyph unicode="Z" glyph-name="Z" horiz-adv-x="556" d="M14 73L378 610V614H148L105 490H30L41 693H540V620L175 83V79H426L471 210H544L534 0H14V73Z" />
<glyph unicode="[" glyph-name="bracketleft" horiz-adv-x="328" d="M58 733H298V671L180 653V-40L298 -58V-120H58V733Z" />
<glyph unicode="\" glyph-name="backslash" horiz-adv-x="353" d="M22 733H111L351 -120H262L22 733Z" />
<glyph unicode="]" glyph-name="bracketright" horiz-adv-x="328" d="M30 -58L148 -40V653L30 671V733H270V-120H30V-58Z" />
<glyph unicode="^" glyph-name="asciicircum" horiz-adv-x="409" d="M167 693H243L388 448H316L205 588L93 448H21L167 693Z" />
<glyph unicode="_" glyph-name="underscore" horiz-adv-x="323" d="M-8 -60H331V-133H-8V-60Z" />
<glyph unicode="`" glyph-name="grave" horiz-adv-x="492" d="M120 653L171 746L358 621L333 571L120 653Z" />
<glyph unicode="a" glyph-name="a" horiz-adv-x="500" d="M171 -13Q101 -13 58 25T15 129Q15 165 27 189T61 230T115 257T186 276L303 300V343Q303 369 299 387T283 416T250 433T193 438Q177 438 159 437T123 435T89 432T61 428V494Q77 501 99 507T146 519T198
527T254 531Q345 531 387 492T429 371V98Q429 75 440 69T472 62H494V8Q483 2 458 -4T403 -11Q368 -11 346 2T316 46H311Q291 23 257 5T171 -13ZM221 66Q247 66 269 75T303 96V231L221 225Q176 222 159 202T142 145Q142 107 160 87T221 66Z" />
<glyph unicode="b" glyph-name="b" horiz-adv-x="563" d="M263 -12Q197 -12 145 0T58 29V648L-11 664V724L170 747L183 741V478H189Q217 499 252 515T341 532Q377 532 412 521T475 481T520 404T538 281Q538 206 518 151T462 59T375 6T263 -12ZM272 62Q302 62 326
71T369 104T396 165T406 261Q406 360 373 399T280 438Q249 438 224 431T183 417V88Q190 83 198 79T216 71T239 65T272 62Z" />
<glyph unicode="c" glyph-name="c" horiz-adv-x="473" d="M282 -12Q218 -12 170 7T88 60T39 144T22 256Q22 329 43 381T102 466T191 515T301 531Q343 531 381 526T446 511V367H369L352 448Q341 451 329 453T291 456Q228 456 191 412T154 269Q154 214 166 177T201
118T253 86T320 76Q367 76 400 84T453 101V35Q429 18 387 3T282 -12Z" />
<glyph unicode="d" glyph-name="d" horiz-adv-x="586" d="M240 -12Q204 -12 166 0T97 43T46 123T26 248Q26 323 45 376T99 464T182 515T288 531Q319 531 339 527T380 517V649L305 665V724L492 747L506 741V85L575 69V13L404 -10L391 -4V48H385Q364 22 328 5T240
-12ZM284 80Q314 80 339 88T380 104V429Q366 439 347 447T291 456Q261 456 237 447T195 416T167 357T157 262Q157 162 190 121T284 80Z" />
<glyph unicode="e" glyph-name="e" horiz-adv-x="514" d="M285 -12Q217 -12 168 7T86 63T38 150T22 264Q22 327 41 376T93 460T171 513T270 531Q387 531 439 461T492 251H152Q157 160 199 118T315 75Q369 75 403 83T467 101V37Q441 20 397 4T285 -12ZM360 321Q360
395 336 426T265 457Q216 457 187 425T152 314L360 321Z" />
<glyph unicode="f" glyph-name="f" horiz-adv-x="331" d="M18 55L86 71V443H19V496L86 520V574Q86 622 100 655T140 709T197 739T265 748Q306 748 331 742T371 727V658Q357 661 342 663T304 665Q259 665 236 645T212 564V521H327V443H212V71L293 55V0H18V55Z" />
<glyph unicode="g" glyph-name="g" horiz-adv-x="526" d="M231 -205Q171 -205 129 -195T59 -167T18 -128T5 -83Q5 -41 35 -13T108 31V36Q80 46 64 65T48 111Q48 141 67 169T118 221Q83 241 63 274T42 355Q42 398 58 430T102 485T169 519T253 531Q312 531 358 514L515
536V453L429 458Q446 440 455 418T464 366Q464 323 448 291T404 236T337 202T253 190Q208 190 169 201Q158 190 153 178T147 154Q147 143 155 134T184 125H356Q388 125 417 119T467 96T501 55T514 -9Q514 -49 497 -84T444 -147T356 -189T231 -205ZM241 -131Q283
-131 313 -124T363 -104T392 -75T401 -40Q401 -9 382 3T322 15H170Q148 5 136 -14T123 -60Q123 -92 150 -111T241 -131ZM253 256Q293 256 318 280T343 360Q343 419 317 442T253 466Q213 466 189 441T164 362Q164 304 189 280T253 256Z" />
<glyph unicode="h" glyph-name="h" horiz-adv-x="600" d="M14 55L82 71V649L13 665V724L196 747L209 740V476H214Q252 500 292 515T382 531Q449 531 486 501T524 396V71L591 55V0H336V55L398 70V357Q398 402 376 419T308 436Q281 436 257 430T209 416V70L270 55V0H14V55Z" />
<glyph unicode="i" glyph-name="i" horiz-adv-x="289" d="M15 55L82 71V431L9 447V506L196 530L209 523V71L276 55V0H15V55ZM141 595Q111 595 90 614T68 663Q68 693 89 712T141 732Q172 732 193 713T215 663Q215 634 194 615T141 595Z" />
<glyph unicode="j" glyph-name="j" horiz-adv-x="278" d="M41 -197Q17 -197 -3 -193T-41 -182V-116Q-30 -118 -19 -118T4 -119Q40 -119 63 -102T87 -32V431L13 447V506L200 530L213 523V-37Q213 -115 171 -156T41 -197ZM145 595Q115 595 94 614T72 663Q72 693
93 712T145 732Q176 732 197 713T219 663Q219 634 198 615T145 595Z" />
<glyph unicode="k" glyph-name="k" horiz-adv-x="558" d="M237 240V274L375 450L317 464V521H537V464L469 449L342 296L499 71L555 55V0H404L237 240ZM14 55L82 70V649L13 665V724L195 747L209 740V69L274 55V0H14V55Z" />
<glyph unicode="l" glyph-name="l" horiz-adv-x="290" d="M14 55L83 71V649L8 665V724L196 747L209 740V71L277 55V0H14V55Z" />
<glyph unicode="m" glyph-name="m" horiz-adv-x="898" d="M14 55L82 71V431L13 447V506L190 530L203 523V475H209Q246 500 285 515T379 531Q468 531 499 470H504Q540 496 584 513T682 531Q747 531 784 498T821 392V71L887 55V0H634V55L695 70V352Q695 400 673
418T605 436Q580 436 557 430T511 416Q514 404 514 377V70L575 55V0H327V55L389 70V352Q389 400 368 418T303 436Q274 436 253 430T209 416V70L270 55V0H14V55Z" />
<glyph unicode="n" glyph-name="n" horiz-adv-x="601" d="M14 55L82 71V431L13 447V506L190 530L203 523V474H209Q247 499 289 515T382 531Q449 531 486 501T524 396V71L591 55V0H336V55L398 70V357Q398 402 376 418T308 435Q281 435 257 430T209 416V70L270 55V0H14V55Z" />
<glyph unicode="o" glyph-name="o" horiz-adv-x="558" d="M281 63Q305 63 327 72T366 103T393 162T403 255Q403 313 393 351T365 413T325 446T277 456Q252 456 230 447T191 416T164 357T154 264Q154 207 164 168T192 106T233 73T281 63ZM280 -13Q220 -13 172 6T91
60T40 145T22 257Q22 320 42 371T96 457T178 512T278 531Q337 531 385 513T466 460T518 375T536 263Q536 199 516 148T461 61T380 6T280 -13Z" />
<glyph unicode="p" glyph-name="p" horiz-adv-x="585" d="M12 -145L79 -131V431L10 447V506L186 530L199 523V474H205Q233 497 271 514T363 532Q399 532 434 521T497 481T542 404T559 281Q559 206 540 151T485 59T400 6T293 -12Q263 -12 244 -11T206 -5V-130L285
-145V-199H12V-145ZM294 62Q324 62 349 71T391 104T418 165T428 261Q428 360 395 399T302 438Q271 438 246 431T206 417V87Q220 78 238 70T294 62Z" />
<glyph unicode="q" glyph-name="q" horiz-adv-x="572" d="M300 -143L380 -127V42H374Q347 19 317 4T237 -12Q200 -12 163 -1T95 40T45 119T26 244Q26 318 46 372T102 461T188 514T299 531Q362 531 411 523T506 498V-129L573 -143V-199H300V-143ZM284 80Q314 80
339 88T380 104V429Q366 439 347 447T288 456Q260 456 236 447T195 416T167 357T157 262Q157 162 190 121T284 80Z" />
<glyph unicode="r" glyph-name="r" horiz-adv-x="378" d="M14 55L82 71V431L13 447V506L190 530L203 523V453H209Q230 483 264 507T342 531Q349 531 357 530T369 527V416Q360 418 348 419T327 420Q291 420 262 413T209 391V71L288 55V0H14V55Z" />
<glyph unicode="s" glyph-name="s" horiz-adv-x="443" d="M201 -13Q158 -13 113 -5T32 17L23 158H96L120 80Q133 73 155 67T208 60Q250 60 276 76T303 127Q303 160 284 175T218 204L162 220Q96 239 62 273T27 371Q27 404 39 433T77 484T141 518T232 531Q277 531
317 525T387 508V375H317L298 444Q286 450 269 454T224 459Q187 459 162 446T137 398Q137 369 156 354T226 324L285 307Q359 286 389 250T420 157Q420 121 407 90T367 36T299 0T201 -13Z" />
<glyph unicode="t" glyph-name="t" horiz-adv-x="359" d="M224 -10Q152 -10 116 19T79 123V443H12V496L90 521L108 643H205V521H330V443H205V146Q205 106 221 89T280 72Q295 72 309 74T338 79V20Q321 9 291 0T224 -10Z" />
<glyph unicode="u" glyph-name="u" horiz-adv-x="601" d="M223 -11Q143 -11 109 29T74 139V437L5 453V511L186 529L199 522V173Q199 126 216 104T284 82Q322 82 345 90T389 106V437L323 453V511L502 529L515 522V85L583 69V13L408 -10L395 -4V53H389Q360 24 319
7T223 -11Z" />
<glyph unicode="v" glyph-name="v" horiz-adv-x="555" d="M52 450L1 464V521H244V464L187 453L298 131H302L414 453L357 464V521H553V464L502 450L333 0H222L52 450Z" />
<glyph unicode="w" glyph-name="w" horiz-adv-x="801" d="M49 450L1 464V521H234V464L177 450L259 159H263L376 521H462L574 159H578L660 450L605 464V521H799V464L751 450L614 0H511L406 351H403L288 0H186L49 450Z" />
<glyph unicode="x" glyph-name="x" horiz-adv-x="559" d="M11 55L67 70L205 260L72 449L17 464V521H270V464L218 452L307 313H310L398 452L343 464V521H540V464L489 450L358 264L493 70L549 55V0H295V55L350 67L256 208H254L159 67L216 55V0H11V55Z" />
<glyph unicode="y" glyph-name="y" horiz-adv-x="555" d="M141 -201Q118 -201 94 -196T56 -183V-107Q73 -111 84 -113T109 -115Q148 -115 171 -100T212 -47L236 12L53 450L1 464V521H249V464L188 451L302 153H306L407 450L348 464V521H553V464L502 450L306 -69Q294
-102 279 -127T245 -168T200 -193T141 -201Z" />
<glyph unicode="z" glyph-name="z" horiz-adv-x="485" d="M24 66L306 447V451H131L102 351H38L47 521H451V455L173 75V71H355L390 182H456L443 0H24V66Z" />
<glyph unicode="{" glyph-name="braceleft" horiz-adv-x="379" d="M349 -120Q280 -118 235 -108T161 -80T122 -37T110 18Q110 38 115 62T126 109T138 154T143 191Q143 205 139 217T123 238T89 253T30 265V348Q67 353 89 360T123 376T139 396T143 422Q143 437 138
458T127 503T115 551T110 595Q110 625 121 650T161 692T234 720T349 733V671Q317 666 296 661T262 647T244 626T238 594Q238 578 241 558T248 515T255 471T258 430Q258 409 253 392T234 359T193 332T122 309V304Q166 294 192 282T233 254T253 222T258 184Q258 165
255 143T248 99T241 56T238 19Q238 0 243 -12T261 -33T295 -47T349 -58V-120V-120Z" />
<glyph unicode="|" glyph-name="bar" horiz-adv-x="228" d="M72 733H155V-120H72V733Z" />
<glyph unicode="}" glyph-name="braceright" horiz-adv-x="379" d="M30 -58Q62 -53 83 -48T117 -34T135 -13T141 19Q141 35 138 55T131 98T124 143T121 184Q121 204 126 221T145 254T186 281T257 304V309Q213 319 187 331T146 359T126 391T121 430Q121 449 124
471T131 515T138 557T141 594Q141 613 136 625T118 646T84 660T30 671V733Q99 731 145 721T218 693T257 650T269 595Q269 575 264 551T253 504T242 459T237 422Q237 408 240 396T256 375T290 359T350 348V265Q313 260 291 253T256 237T241 217T237 191Q237 176
242 155T253 110T264 62T269 18Q269 -12 258 -37T219 -79T145 -107T30 -120V-58Z" />
<glyph unicode="~" glyph-name="asciitilde" horiz-adv-x="430" d="M18 260Q42 318 72 347T147 377Q168 377 187 370T224 355T256 339T286 332Q323 332 355 384L412 350Q389 292 358 263T283 233Q262 233 243 240T206 255T174 271T145 278Q107 278 75 225L18 260Z" />
<glyph unicode="&#xa0;" glyph-name="uni00A0" horiz-adv-x="184" />
<glyph unicode="&#xa1;" glyph-name="exclamdown" horiz-adv-x="259" d="M91 373H172L200 -120H61L91 373ZM130 447Q99 447 79 467T59 516Q59 545 79 565T130 586Q161 586 181 566T201 516Q201 488 181 468T130 447Z" />
<glyph unicode="&#xa2;" glyph-name="cent" horiz-adv-x="481" d="M221 -6Q124 12 74 80T23 256Q23 325 42 375T96 458T177 509T278 530L285 595H354L347 529Q411 524 454 510V367H386L369 449Q362 451 356 452T339 456L297 73Q303 72 309 72T321 72Q368 72 405
81T462 100V35Q437 18 394 4T288 -12L277 -119H209L221 -6ZM150 269Q150 194 171 152T231 89L270 456Q214 447 182 402T150 269Z" />
<glyph unicode="&#xa3;" glyph-name="sterling" horiz-adv-x="542" d="M55 381H119V473Q119 533 137 577T186 649T258 691T344 705Q374 705 398 702T441 692T475 678T505 659V586Q477 596 451 601T389 606Q363 606 339 601T296 579T265 535T251 462L247 381H419V304H243L241
262Q239 230 233 207T218 166T195 134T166 106V104H513L500 0H34V72Q55 84 71 98T97 131T113 175T119 234V304H55V381Z" />
<glyph unicode="&#xa5;" glyph-name="yen" horiz-adv-x="608" d="M77 378H210L58 613L7 631V693H268V631L206 614L335 398H339L457 614L392 631V693H601V631L550 613L408 378H544V314H378V245H544V181H378V80L461 62V0H160V62L243 80V181H77V245H243V314H77V378Z" />
<glyph unicode="&#xa6;" glyph-name="brokenbar" horiz-adv-x="228" d="M72 279H155V-120H72V279ZM72 733H155V371H72V733Z" />
<glyph unicode="&#xa7;" glyph-name="section" horiz-adv-x="520" d="M247 -132Q194 -132 153 -124T76 -101L68 34H140L165 -38Q180 -46 199 -52T251 -58Q290 -58 318 -42T346 10Q346 41 325 61T256 99L177 127Q140 140 112 155T64 189T34 232T24 287Q24 337 54
369T138 419Q106 440 90 470T73 546Q73 618 124 661T280 705Q329 705 369 698T436 681V553H367L347 616Q336 622 319 627T272 632Q234 632 209 617T183 566Q183 535 200 518T265 483L343 455Q416 429 456 394T496 297Q496 247 467 214T383 162Q418 139 439 108T460
33Q460 -2 447 -32T408 -84T341 -119T247 -132ZM216 383Q184 376 162 358T140 311Q140 278 164 260T237 224L304 199Q336 204 358 222T380 271Q380 303 358 321T288 357L216 383Z" />
<glyph unicode="&#xa8;" glyph-name="dieresis" horiz-adv-x="492" d="M155 594Q128 594 108 612T88 659Q88 688 108 705T155 723Q183 723 203 706T223 659Q223 631 203 613T155 594ZM337 594Q309 594 289 612T269 659Q269 688 289 705T337 723Q365 723 384 706T404
659Q404 631 385 613T337 594Z" />
<glyph unicode="&#xa9;" glyph-name="copyright" horiz-adv-x="774" d="M394 157Q354 157 320 168T261 203T222 261T208 343Q208 394 224 430T266 490T328 525T403 536Q438 536 467 531T515 520L520 415H469L447 472Q437 476 426 479T398 482Q350 482 332 448T313
353Q313 281 332 246T402 211Q435 211 449 219L472 285H524L517 177Q497 169 467 163T394 157ZM386 38Q451 38 505 62T597 128T657 225T679 344Q679 407 658 462T598 560T505 626T386 650Q321 650 267 626T175 560T115 463T93 344Q93 281 114 226T174 128T267 62T386
38ZM386 -14Q311 -14 246 14T134 91T59 205T32 344Q32 418 59 483T133 596T246 672T386 700Q461 700 526 672T639 596T714 483T742 344Q742 270 715 205T639 91T526 14T386 -14Z" />
<glyph unicode="&#xaa;" glyph-name="ordfeminine" horiz-adv-x="470" d="M166 219Q103 219 65 254T27 346Q27 378 38 400T70 438T120 464T184 480L282 499V534Q282 556 278 571T263 597T234 611T185 615Q156 615 124 612T70 605V670Q100 682 145 692T241 703Q401
703 401 560V324Q401 305 411 299T438 293H457V240Q447 234 427 228T377 222Q345 222 324 233T295 272H290Q272 251 242 235T166 219ZM211 294Q233 294 252 301T282 317V435L214 431Q145 426 145 360Q145 294 211 294Z" />
<glyph unicode="&#xab;" glyph-name="guillemotleft" horiz-adv-x="441" d="M36 235V270L143 449H224L145 253L224 57H143L36 235ZM215 235V270L321 449H403L323 253L403 57H321L215 235Z" />
<glyph unicode="&#xae;" glyph-name="registered" horiz-adv-x="449" d="M131 435L151 441V568L131 573V600H229Q267 600 287 586T307 545Q307 525 297 516T272 501V498L310 440L325 435V410H267L224 484H207V441L225 435V410H131V435ZM225 515Q242 515 247 521T252
542Q252 556 246 562T225 568H207V515H225ZM224 337Q260 337 289 350T339 385T371 437T383 502Q383 536 372 566T339 618T289 654T224 667Q188 667 159 654T109 619T77 566T65 502Q65 467 76 437T109 385T159 350T224 337ZM224 299Q181 299 144 315T79 358T36 423T20
502Q20 544 35 581T78 645T143 689T224 705Q267 705 304 689T369 646T413 581T429 502Q429 460 413 423T370 359T305 315T224 299Z" />
<glyph unicode="&#xaf;" glyph-name="macron" horiz-adv-x="492" d="M115 682H376V602H115V682Z" />
<glyph unicode="&#xb0;" glyph-name="degree" horiz-adv-x="351" d="M176 468Q215 468 236 495T257 559Q257 595 236 622T176 649Q136 649 115 622T94 559Q94 523 115 496T176 468ZM176 415Q144 415 118 426T71 457T40 503T29 559Q29 588 40 614T71 659T117 690T176
702Q207 702 234 691T280 660T311 614T322 559Q322 530 311 504T281 458T234 427T176 415Z" />
<glyph unicode="&#xb4;" glyph-name="acute" horiz-adv-x="492" d="M134 621L321 746L372 653L159 571L134 621Z" />
<glyph unicode="&#xb6;" glyph-name="paragraph" horiz-adv-x="584" d="M288 329Q270 326 247 326Q206 326 170 337T105 371T60 429T43 513Q43 599 98 646T279 693H586V631L512 613V-120H434V619H366V-120H288V329Z" />
<glyph unicode="&#xb7;" glyph-name="periodcentered" horiz-adv-x="233" d="M117 254Q84 254 62 275T40 328Q40 360 62 381T117 403Q149 403 171 382T193 328Q193 297 171 276T117 254Z" />
<glyph unicode="&#xb8;" glyph-name="cedilla" horiz-adv-x="492" d="M196 -173Q255 -166 276 -155T298 -126Q298 -109 281 -102T218 -93V0H273V-45Q335 -48 362 -65T390 -119Q390 -159 345 -185T196 -216V-173Z" />
<glyph unicode="&#xba;" glyph-name="ordmasculine" horiz-adv-x="507" d="M255 291Q276 291 295 299T328 326T350 377T358 457Q358 508 350 541T326 595T292 623T252 632Q231 632 212 625T179 598T156 547T148 465Q148 415 156 382T180 328T214 300T255 291ZM254
219Q201 219 159 236T88 284T42 360T26 459Q26 516 44 561T92 637T164 686T252 703Q305 703 347 687T419 639T465 564T481 464Q481 407 463 362T415 285T343 236T254 219Z" />
<glyph unicode="&#xbb;" glyph-name="guillemotright" horiz-adv-x="441" d="M118 252L38 449H120L226 270V235L120 57H38L118 252ZM297 252L217 449H299L405 270V235L299 57H217L297 252Z" />
<glyph unicode="&#xbc;" glyph-name="onequarter" horiz-adv-x="831" d="M43 329L103 339V607L38 602V648L162 703H207V339L268 329V282H43V329ZM613 713H696L213 -40H130L613 713ZM592 47L642 57V120H457V170L657 417H741V176H797V120H741V57L792 47V0H592V47ZM642
176V316H639L530 178V176H642Z" />
<glyph unicode="&#xbd;" glyph-name="onehalf" horiz-adv-x="859" d="M602 713H685L202 -40H119L602 713ZM43 329L103 339V607L38 602V648L162 703H207V339L268 329V282H43V329ZM524 55L624 150Q659 184 683 216T707 283Q707 351 629 351Q605 351 583 346T540
334V389Q564 403 597 413T671 424Q739 424 777 392T815 300Q815 249 781 208T686 120L624 72V71H751L776 118H826L817 0H524V55Z" />
<glyph unicode="&#xbe;" glyph-name="threequarters" horiz-adv-x="851" d="M158 275Q114 275 84 283T34 303V355Q53 349 77 345T128 340Q170 340 193 356T216 405Q216 441 196 455T134 469H98V525H129Q206 525 206 583Q206 642 134 642Q108 642 89 639T51 630V681Q71
692 102 699T168 706Q234 706 270 680T306 602Q306 563 283 539T223 504V501Q264 495 293 471T322 397Q322 340 279 308T158 275ZM633 711H716L233 -42H150L633 711ZM612 45L662 55V118H477V168L677 415H761V174H817V118H761V55L812 45V-2H612V45ZM662 174V314H659L550
176V174H662Z" />
<glyph unicode="&#xbf;" glyph-name="questiondown" horiz-adv-x="423" d="M237 -132Q193 -132 155 -123T89 -92T45 -37T29 48Q29 81 37 105T60 150T97 189T149 226Q167 238 182 248T208 268T225 290T232 318Q232 329 231 342T224 374H294Q300 360 306 341T312
295Q312 274 307 258T290 228T263 199T226 169Q210 156 198 145T178 120T166 91T162 54Q162 2 193 -22T277 -47Q296 -47 312 -46T342 -43T371 -37T401 -28V-95Q367 -112 327 -122T237 -132ZM257 447Q226 447 206 467T185 516Q185 545 205 565T257 586Q288 586 308
566T328 516Q328 488 308 468T257 447Z" />
<glyph unicode="&#xc0;" glyph-name="Agrave" horiz-adv-x="682" d="M1 63L65 80L282 693H405L617 80L681 63V0H393V62L467 80L423 217H207L161 80L237 62V0H1V63ZM229 285H402L320 541H315L229 285ZM208 787L249 883L447 778L427 726L208 787Z" />
<glyph unicode="&#xc1;" glyph-name="Aacute" horiz-adv-x="682" d="M1 63L65 80L282 693H405L617 80L681 63V0H393V62L467 80L423 217H207L161 80L237 62V0H1V63ZM229 285H402L320 541H315L229 285ZM255 726L235 778L433 883L474 787L255 726Z" />
<glyph unicode="&#xc2;" glyph-name="Acircumflex" horiz-adv-x="682" d="M1 63L65 80L282 693H405L617 80L681 63V0H393V62L467 80L423 217H207L161 80L237 62V0H1V63ZM229 285H402L320 541H315L229 285ZM192 767L311 872H372L492 767L469 728L342 782L215 728L192 767Z" />
<glyph unicode="&#xc3;" glyph-name="Atilde" horiz-adv-x="682" d="M1 63L65 80L282 693H405L617 80L681 63V0H393V62L467 80L423 217H207L161 80L237 62V0H1V63ZM229 285H402L320 541H315L229 285ZM180 761Q199 806 226 832T289 858Q305 858 320 853T350 843T376
832T400 827Q416 827 428 835T454 865L505 837Q486 792 459 766T395 739Q378 739 363 744T334 754T308 765T284 770Q268 770 256 762T230 732L180 761Z" />
<glyph unicode="&#xc4;" glyph-name="Adieresis" horiz-adv-x="682" d="M1 63L65 80L282 693H405L617 80L681 63V0H393V62L467 80L423 217H207L161 80L237 62V0H1V63ZM229 285H402L320 541H315L229 285ZM251 733Q224 733 204 751T184 798Q184 827 204 844T251
862Q279 862 299 845T319 798Q319 770 299 752T251 733ZM433 733Q405 733 385 751T365 798Q365 827 385 844T433 862Q461 862 480 845T500 798Q500 770 481 752T433 733Z" />
<glyph unicode="&#xc5;" glyph-name="Aring" horiz-adv-x="682" d="M1 63L65 80L282 693H405L617 80L681 63V0H393V62L467 80L423 217H207L161 80L237 62V0H1V63ZM229 285H402L320 541H315L229 285ZM342 767Q364 767 377 780T390 816Q390 837 377 851T342 865Q320
865 307 851T294 816Q294 794 307 781T342 767ZM342 719Q297 719 269 747T240 816Q240 856 268 884T342 913Q386 913 415 885T444 816Q444 776 415 748T342 719Z" />
<glyph unicode="&#xc6;" glyph-name="AE" horiz-adv-x="947" d="M237 62V0H1V63L61 81L381 622L318 631V693H902L912 507H840L800 617H587V392H686L709 475H770V235H709L686 320H587V76H808L859 212H932L920 0H370V62L451 80V214H235L158 81L237 62ZM451 283V588H448L274
283H451Z" />
<glyph unicode="&#xc7;" glyph-name="Ccedilla" horiz-adv-x="621" d="M252 -173Q311 -166 332 -155T354 -126Q354 -109 337 -102T274 -93V-5Q218 5 172 29T94 96T43 198T25 339Q25 442 54 512T133 625T245 686T374 705Q439 705 491 697T575 677L581 494H507L469
601Q452 609 425 616T365 623Q265 623 219 554T172 359Q172 210 219 141T373 71Q405 71 430 78T475 96L512 210H587L580 25Q542 8 489 -2T357 -12Q349 -12 343 -12T329 -11V-45Q391 -48 418 -65T446 -119Q446 -159 401 -185T252 -216V-173Z" />
<glyph unicode="&#xc8;" glyph-name="Egrave" horiz-adv-x="606" d="M182 787L223 883L421 778L401 726L182 787ZM19 62L100 80V613L20 631V693H559L569 507H497L457 617H238V392H343L367 475H428V235H367L343 320H238V76H464L516 212H588L577 0H19V62Z" />
<glyph unicode="&#xc9;" glyph-name="Eacute" horiz-adv-x="606" d="M229 726L209 778L407 883L448 787L229 726ZM19 62L100 80V613L20 631V693H559L569 507H497L457 617H238V392H343L367 475H428V235H367L343 320H238V76H464L516 212H588L577 0H19V62Z" />
<glyph unicode="&#xca;" glyph-name="Ecircumflex" horiz-adv-x="606" d="M166 767L285 872H346L466 767L443 728L316 782L189 728L166 767ZM19 62L100 80V613L20 631V693H559L569 507H497L457 617H238V392H343L367 475H428V235H367L343 320H238V76H464L516 212H588L577
0H19V62Z" />
<glyph unicode="&#xcb;" glyph-name="Edieresis" horiz-adv-x="606" d="M19 62L100 80V613L20 631V693H559L569 507H497L457 617H238V392H343L367 475H428V235H367L343 320H238V76H464L516 212H588L577 0H19V62ZM225 733Q198 733 178 751T158 798Q158 827 178
844T225 862Q253 862 273 845T293 798Q293 770 273 752T225 733ZM407 733Q379 733 359 751T339 798Q339 827 359 844T407 862Q435 862 454 845T474 798Q474 770 455 752T407 733Z" />
<glyph unicode="&#xcc;" glyph-name="Igrave" horiz-adv-x="338" d="M19 62L100 80V613L19 631V693H319V631L239 613V80L319 62V0H19V62ZM292 787L333 883L531 778L511 726L292 787Z" />
<glyph unicode="&#xcd;" glyph-name="Iacute" horiz-adv-x="338" d="M19 62L100 80V613L19 631V693H319V631L239 613V80L319 62V0H19V62ZM334 726L314 778L512 883L553 787L334 726Z" />
<glyph unicode="&#xce;" glyph-name="Icircumflex" horiz-adv-x="338" d="M19 62L100 80V613L19 631V693H319V631L239 613V80L319 62V0H19V62ZM276 767L395 872H456L576 767L553 728L426 782L299 728L276 767Z" />
<glyph unicode="&#xcf;" glyph-name="Idieresis" horiz-adv-x="338" d="M19 62L100 80V613L19 631V693H319V631L239 613V80L319 62V0H19V62ZM335 733Q308 733 288 751T268 798Q268 827 288 844T335 862Q363 862 383 845T403 798Q403 770 383 752T335 733ZM517
733Q489 733 469 751T449 798Q449 827 469 844T517 862Q545 862 564 845T584 798Q584 770 565 752T517 733Z" />
<glyph unicode="&#xd0;" glyph-name="Eth" horiz-adv-x="690" d="M27 392H100V613L20 631V693H319Q497 693 581 611T665 362Q665 181 580 91T327 0H19V62L100 80V310H27V392ZM323 78Q372 78 408 91T469 134T506 217T519 347Q519 435 505 488T463 569T395 606T303
615H239V392H394V310H239V78H323Z" />
<glyph unicode="&#xd1;" glyph-name="Ntilde" horiz-adv-x="718" d="M222 761Q241 806 268 832T331 858Q347 858 362 853T392 843T418 832T442 827Q458 827 470 835T496 865L547 837Q528 792 501 766T437 739Q420 739 405 744T376 754T350 765T326 770Q310 770
298 762T272 732L222 761ZM19 61L100 80V613L19 631V693H264L537 223H542V612L461 631V693H707V632L635 613V0H518L198 553H194V80L276 61V0H19V61Z" />
<glyph unicode="&#xd2;" glyph-name="Ograve" horiz-adv-x="694" d="M213 787L254 883L452 778L432 726L213 787ZM347 70Q436 70 479 141T523 338Q523 486 479 555T346 624Q302 624 269 606T214 552T182 468T171 356Q171 217 210 144T347 70ZM345 -12Q277 -12
219 10T118 78T50 190T25 345Q25 439 53 507T126 619T230 684T349 705Q416 705 474 683T576 616T643 505T668 350Q668 256 641 188T568 76T464 10T345 -12Z" />
<glyph unicode="&#xd3;" glyph-name="Oacute" horiz-adv-x="694" d="M260 726L240 778L438 883L479 787L260 726ZM347 70Q436 70 479 141T523 338Q523 486 479 555T346 624Q302 624 269 606T214 552T182 468T171 356Q171 217 210 144T347 70ZM345 -12Q277 -12
219 10T118 78T50 190T25 345Q25 439 53 507T126 619T230 684T349 705Q416 705 474 683T576 616T643 505T668 350Q668 256 641 188T568 76T464 10T345 -12Z" />
<glyph unicode="&#xd4;" glyph-name="Ocircumflex" horiz-adv-x="694" d="M197 767L316 872H377L497 767L474 728L347 782L220 728L197 767ZM347 70Q436 70 479 141T523 338Q523 486 479 555T346 624Q302 624 269 606T214 552T182 468T171 356Q171 217 210 144T347
70ZM345 -12Q277 -12 219 10T118 78T50 190T25 345Q25 439 53 507T126 619T230 684T349 705Q416 705 474 683T576 616T643 505T668 350Q668 256 641 188T568 76T464 10T345 -12Z" />
<glyph unicode="&#xd5;" glyph-name="Otilde" horiz-adv-x="694" d="M185 761Q204 806 231 832T294 858Q310 858 325 853T355 843T381 832T405 827Q421 827 433 835T459 865L510 837Q491 792 464 766T400 739Q383 739 368 744T339 754T313 765T289 770Q273 770
261 762T235 732L185 761ZM347 70Q436 70 479 141T523 338Q523 486 479 555T346 624Q302 624 269 606T214 552T182 468T171 356Q171 217 210 144T347 70ZM345 -12Q277 -12 219 10T118 78T50 190T25 345Q25 439 53 507T126 619T230 684T349 705Q416 705 474 683T576
616T643 505T668 350Q668 256 641 188T568 76T464 10T345 -12Z" />
<glyph unicode="&#xd6;" glyph-name="Odieresis" horiz-adv-x="694" d="M256 733Q229 733 209 751T189 798Q189 827 209 844T256 862Q284 862 304 845T324 798Q324 770 304 752T256 733ZM438 733Q410 733 390 751T370 798Q370 827 390 844T438 862Q466 862 485
845T505 798Q505 770 486 752T438 733ZM347 70Q436 70 479 141T523 338Q523 486 479 555T346 624Q302 624 269 606T214 552T182 468T171 356Q171 217 210 144T347 70ZM345 -12Q277 -12 219 10T118 78T50 190T25 345Q25 439 53 507T126 619T230 684T349 705Q416
705 474 683T576 616T643 505T668 350Q668 256 641 188T568 76T464 10T345 -12Z" />
<glyph unicode="&#xd7;" glyph-name="multiply" horiz-adv-x="531" d="M468 482L323 336L469 190L411 133L266 279L121 133L64 190L209 336L64 483L121 540L266 394L411 539L468 482Z" />
<glyph unicode="&#xd8;" glyph-name="Oslash" horiz-adv-x="694" d="M35 9L103 94Q66 139 46 201T25 345Q25 439 53 507T126 619T230 684T349 705Q461 705 541 645L595 713L650 674L590 599Q627 554 647 493T668 350Q668 256 641 188T568 76T464 10T345 -12Q232
-12 151 48L90 -29L35 9ZM347 70Q437 70 481 141T526 338Q526 433 508 496L216 129Q258 70 347 70ZM168 356Q168 308 172 269T185 197L476 564Q432 624 346 624Q256 624 212 552T168 356Z" />
<glyph unicode="&#xd9;" glyph-name="Ugrave" horiz-adv-x="691" d="M237 787L278 883L476 778L456 726L237 787ZM354 -13Q285 -13 234 3T150 49T100 121T83 215V613L5 631V693H301V631L222 614V231Q222 147 262 110T373 73Q446 73 485 110T524 231V613L445 630V693H686V631L616
613V225Q616 171 600 128T551 53T469 4T354 -13Z" />
<glyph unicode="&#xda;" glyph-name="Uacute" horiz-adv-x="691" d="M283 726L263 778L461 883L502 787L283 726ZM354 -13Q285 -13 234 3T150 49T100 121T83 215V613L5 631V693H301V631L222 614V231Q222 147 262 110T373 73Q446 73 485 110T524 231V613L445 630V693H686V631L616
613V225Q616 171 600 128T551 53T469 4T354 -13Z" />
<glyph unicode="&#xdb;" glyph-name="Ucircumflex" horiz-adv-x="691" d="M221 767L340 872H401L521 767L498 728L371 782L244 728L221 767ZM354 -13Q285 -13 234 3T150 49T100 121T83 215V613L5 631V693H301V631L222 614V231Q222 147 262 110T373 73Q446 73 485
110T524 231V613L445 630V693H686V631L616 613V225Q616 171 600 128T551 53T469 4T354 -13Z" />
<glyph unicode="&#xdc;" glyph-name="Udieresis" horiz-adv-x="691" d="M354 -13Q285 -13 234 3T150 49T100 121T83 215V613L5 631V693H301V631L222 614V231Q222 147 262 110T373 73Q446 73 485 110T524 231V613L445 630V693H686V631L616 613V225Q616 171 600
128T551 53T469 4T354 -13ZM280 733Q253 733 233 751T213 798Q213 827 233 844T280 862Q308 862 328 845T348 798Q348 770 328 752T280 733ZM462 733Q434 733 414 751T394 798Q394 827 414 844T462 862Q490 862 509 845T529 798Q529 770 510 752T462 733Z" />
<glyph unicode="&#xdd;" glyph-name="Yacute" horiz-adv-x="633" d="M172 62L254 80V296L62 613L4 631V693H272V631L209 614L347 375H351L479 614L413 631V693H629V631L572 613L393 297V80L473 62V0H172V62ZM252 726L232 778L430 883L471 787L252 726Z" />
<glyph unicode="&#xde;" glyph-name="Thorn" horiz-adv-x="598" d="M19 62L100 80V613L19 631V693H315V631L238 613V548H321Q393 548 442 535T521 496T565 437T578 361Q578 314 561 279T514 220T443 185T355 173Q331 173 310 175T282 179V241Q284 241 295 240T323
239Q437 239 437 356Q437 418 410 443T322 469H238V80L334 62V0H19V62Z" />
<glyph unicode="&#xdf;" glyph-name="germandbls" horiz-adv-x="625" d="M420 -13Q378 -13 342 -6T280 11L272 138H341L362 73Q372 68 386 64T418 60Q451 60 472 75T493 119Q493 134 487 146T470 168T445 187T416 205L374 231Q356 241 340 252T312 278T293 311T286
353Q286 390 306 421T350 479T395 534T415 593Q415 628 395 650T331 673Q267 673 240 633T212 528V0H18V55L86 71V443H19V496L86 520V541Q86 586 103 623T153 689T232 732T335 748Q434 748 487 708T540 605Q540 581 529 560T502 520T467 485T432 453T405 422T394
392Q394 370 407 357T453 324L495 299Q516 287 536 274T571 242T597 201T607 146Q607 113 596 84T561 34T502 0T420 -13Z" />
<glyph unicode="&#xe0;" glyph-name="agrave" horiz-adv-x="500" d="M171 -13Q101 -13 58 25T15 129Q15 165 27 189T61 230T115 257T186 276L303 300V343Q303 369 299 387T283 416T250 433T193 438Q177 438 159 437T123 435T89 432T61 428V494Q77 501 99 507T146
519T198 527T254 531Q345 531 387 492T429 371V98Q429 75 440 69T472 62H494V8Q483 2 458 -4T403 -11Q368 -11 346 2T316 46H311Q291 23 257 5T171 -13ZM221 66Q247 66 269 75T303 96V231L221 225Q176 222 159 202T142 145Q142 107 160 87T221 66ZM375 653L426
746L613 621L588 571L375 653Z" />
<glyph unicode="&#xe1;" glyph-name="aacute" horiz-adv-x="500" d="M171 -13Q101 -13 58 25T15 129Q15 165 27 189T61 230T115 257T186 276L303 300V343Q303 369 299 387T283 416T250 433T193 438Q177 438 159 437T123 435T89 432T61 428V494Q77 501 99 507T146
519T198 527T254 531Q345 531 387 492T429 371V98Q429 75 440 69T472 62H494V8Q483 2 458 -4T403 -11Q368 -11 346 2T316 46H311Q291 23 257 5T171 -13ZM221 66Q247 66 269 75T303 96V231L221 225Q176 222 159 202T142 145Q142 107 160 87T221 66ZM139 621L326
746L377 653L164 571L139 621Z" />
<glyph unicode="&#xe2;" glyph-name="acircumflex" horiz-adv-x="500" d="M171 -13Q101 -13 58 25T15 129Q15 165 27 189T61 230T115 257T186 276L303 300V343Q303 369 299 387T283 416T250 433T193 438Q177 438 159 437T123 435T89 432T61 428V494Q77 501 99
507T146 519T198 527T254 531Q345 531 387 492T429 371V98Q429 75 440 69T472 62H494V8Q483 2 458 -4T403 -11Q368 -11 346 2T316 46H311Q291 23 257 5T171 -13ZM221 66Q247 66 269 75T303 96V231L221 225Q176 222 159 202T142 145Q142 107 160 87T221 66ZM102
611L218 737H279L396 611L369 574L249 645L128 574L102 611Z" />
<glyph unicode="&#xe3;" glyph-name="atilde" horiz-adv-x="500" d="M171 -13Q101 -13 58 25T15 129Q15 165 27 189T61 230T115 257T186 276L303 300V343Q303 369 299 387T283 416T250 433T193 438Q177 438 159 437T123 435T89 432T61 428V494Q77 501 99 507T146
519T198 527T254 531Q345 531 387 492T429 371V98Q429 75 440 69T472 62H494V8Q483 2 458 -4T403 -11Q368 -11 346 2T316 46H311Q291 23 257 5T171 -13ZM221 66Q247 66 269 75T303 96V231L221 225Q176 222 159 202T142 145Q142 107 160 87T221 66ZM87 619Q107 664
134 690T197 717Q213 717 228 712T256 701T282 690T305 685Q321 685 333 693T359 723L410 694Q390 649 363 623T300 596Q283 596 269 601T241 612T215 623T192 628Q176 628 164 620T138 590L87 619Z" />
<glyph unicode="&#xe4;" glyph-name="adieresis" horiz-adv-x="500" d="M171 -13Q101 -13 58 25T15 129Q15 165 27 189T61 230T115 257T186 276L303 300V343Q303 369 299 387T283 416T250 433T193 438Q177 438 159 437T123 435T89 432T61 428V494Q77 501 99 507T146
519T198 527T254 531Q345 531 387 492T429 371V98Q429 75 440 69T472 62H494V8Q483 2 458 -4T403 -11Q368 -11 346 2T316 46H311Q291 23 257 5T171 -13ZM221 66Q247 66 269 75T303 96V231L221 225Q176 222 159 202T142 145Q142 107 160 87T221 66ZM158 594Q131
594 111 612T91 659Q91 688 111 705T158 723Q186 723 206 706T226 659Q226 631 206 613T158 594ZM340 594Q312 594 292 612T272 659Q272 688 292 705T340 723Q368 723 387 706T407 659Q407 631 388 613T340 594Z" />
<glyph unicode="&#xe5;" glyph-name="aring" horiz-adv-x="500" d="M171 -13Q101 -13 58 25T15 129Q15 165 27 189T61 230T115 257T186 276L303 300V343Q303 369 299 387T283 416T250 433T193 438Q177 438 159 437T123 435T89 432T61 428V494Q77 501 99 507T146
519T198 527T254 531Q345 531 387 492T429 371V98Q429 75 440 69T472 62H494V8Q483 2 458 -4T403 -11Q368 -11 346 2T316 46H311Q291 23 257 5T171 -13ZM221 66Q247 66 269 75T303 96V231L221 225Q176 222 159 202T142 145Q142 107 160 87T221 66ZM249 622Q271
622 284 635T297 671Q297 692 284 705T249 719Q227 719 214 706T201 671Q201 648 214 635T249 622ZM249 574Q204 574 176 602T147 671Q147 711 175 739T249 767Q293 767 322 739T351 671Q351 631 322 603T249 574Z" />
<glyph unicode="&#xe6;" glyph-name="ae" horiz-adv-x="785" d="M175 -13Q102 -13 59 25T15 129Q15 200 60 233T186 281L303 303V343Q303 369 299 387T283 416T250 433T193 438Q177 438 159 437T123 435T89 432T61 428V494Q93 508 144 519T250 531Q353 531 388
469Q448 531 545 531Q661 531 712 460T763 248H430Q435 157 475 116T589 75Q616 75 637 77T676 83T709 91T738 101V37Q712 20 670 4T559 -12Q485 -12 435 10T352 75Q323 37 277 12T175 -13ZM327 118Q315 143 309 173T301 237L221 231Q176 228 159 205T142 145Q142
107 161 87T222 66Q247 66 273 78T327 118ZM631 318Q631 392 608 424T539 457Q490 457 463 423T430 311L631 318Z" />
<glyph unicode="&#xe7;" glyph-name="ccedilla" horiz-adv-x="473" d="M173 -173Q232 -166 253 -155T275 -126Q275 -109 258 -102T195 -93V-1Q109 22 66 88T22 256Q22 329 43 381T102 466T191 515T301 531Q343 531 381 526T446 511V367H369L352 448Q341 451 329
453T291 456Q228 456 191 412T154 269Q154 214 166 177T201 118T253 86T320 76Q367 76 400 84T453 101V35Q429 18 387 3T282 -12Q274 -12 266 -12T250 -11V-45Q312 -48 339 -65T367 -119Q367 -159 322 -185T173 -216V-173Z" />
<glyph unicode="&#xe8;" glyph-name="egrave" horiz-adv-x="514" d="M285 -12Q217 -12 168 7T86 63T38 150T22 264Q22 327 41 376T93 460T171 513T270 531Q387 531 439 461T492 251H152Q157 160 199 118T315 75Q369 75 403 83T467 101V37Q441 20 397 4T285 -12ZM360
321Q360 395 336 426T265 457Q216 457 187 425T152 314L360 321ZM138 653L189 746L376 621L351 571L138 653Z" />
<glyph unicode="&#xe9;" glyph-name="eacute" horiz-adv-x="514" d="M159 621L346 746L397 653L184 571L159 621ZM285 -12Q217 -12 168 7T86 63T38 150T22 264Q22 327 41 376T93 460T171 513T270 531Q387 531 439 461T492 251H152Q157 160 199 118T315 75Q369
75 403 83T467 101V37Q441 20 397 4T285 -12ZM360 321Q360 395 336 426T265 457Q216 457 187 425T152 314L360 321Z" />
<glyph unicode="&#xea;" glyph-name="ecircumflex" horiz-adv-x="514" d="M121 611L237 737H298L415 611L388 574L268 645L147 574L121 611ZM285 -12Q217 -12 168 7T86 63T38 150T22 264Q22 327 41 376T93 460T171 513T270 531Q387 531 439 461T492 251H152Q157
160 199 118T315 75Q369 75 403 83T467 101V37Q441 20 397 4T285 -12ZM360 321Q360 395 336 426T265 457Q216 457 187 425T152 314L360 321Z" />
<glyph unicode="&#xeb;" glyph-name="edieresis" horiz-adv-x="514" d="M177 594Q150 594 130 612T110 659Q110 688 130 705T177 723Q205 723 225 706T245 659Q245 631 225 613T177 594ZM359 594Q331 594 311 612T291 659Q291 688 311 705T359 723Q387 723 406
706T426 659Q426 631 407 613T359 594ZM285 -12Q217 -12 168 7T86 63T38 150T22 264Q22 327 41 376T93 460T171 513T270 531Q387 531 439 461T492 251H152Q157 160 199 118T315 75Q369 75 403 83T467 101V37Q441 20 397 4T285 -12ZM360 321Q360 395 336 426T265
457Q216 457 187 425T152 314L360 321Z" />
<glyph unicode="&#xec;" glyph-name="igrave" horiz-adv-x="289" d="M15 55L82 71V431L9 447V506L196 530L209 523V71L276 55V0H15V55ZM268 653L319 746L506 621L481 571L268 653Z" />
<glyph unicode="&#xed;" glyph-name="iacute" horiz-adv-x="289" d="M289 621L476 746L527 653L314 571L289 621ZM15 55L82 71V431L9 447V506L196 530L209 523V71L276 55V0H15V55Z" />
<glyph unicode="&#xee;" glyph-name="icircumflex" horiz-adv-x="289" d="M251 611L367 737H428L545 611L518 574L398 645L277 574L251 611ZM15 55L82 71V431L9 447V506L196 530L209 523V71L276 55V0H15V55Z" />
<glyph unicode="&#xef;" glyph-name="idieresis" horiz-adv-x="289" d="M307 594Q280 594 260 612T240 659Q240 688 260 705T307 723Q335 723 355 706T375 659Q375 631 355 613T307 594ZM489 594Q461 594 441 612T421 659Q421 688 441 705T489 723Q517 723 536
706T556 659Q556 631 537 613T489 594ZM15 55L82 71V431L9 447V506L196 530L209 523V71L276 55V0H15V55Z" />
<glyph unicode="&#xf0;" glyph-name="eth" horiz-adv-x="556" d="M361 643Q438 583 484 499T531 295Q531 218 512 161T459 65T379 7T278 -13Q218 -13 171 6T90 60T40 145T22 254Q22 317 40 366T90 450T163 502T249 520Q283 520 306 513T347 494H353Q316 551 259
597L132 541L109 591L209 635Q189 649 167 662T120 690L166 750Q204 735 240 718T309 680L422 730L444 680L361 643ZM279 62Q303 62 325 70T363 101T389 163T399 266Q399 315 394 351T379 417Q362 430 337 439T279 448Q251 448 228 439T189 409T163 351T154 261Q154
204 164 166T191 104T231 72T279 62Z" />
<glyph unicode="&#xf1;" glyph-name="ntilde" horiz-adv-x="601" d="M14 55L82 71V431L13 447V506L190 530L203 523V474H209Q247 499 289 515T382 531Q449 531 486 501T524 396V71L591 55V0H336V55L398 70V357Q398 402 376 418T308 435Q281 435 257 430T209 416V70L270
55V0H14V55ZM142 619Q162 664 189 690T252 717Q268 717 283 712T311 701T337 690T360 685Q376 685 388 693T414 723L465 694Q445 649 418 623T355 596Q338 596 324 601T296 612T270 623T247 628Q231 628 219 620T193 590L142 619Z" />
<glyph unicode="&#xf2;" glyph-name="ograve" horiz-adv-x="558" d="M281 63Q305 63 327 72T366 103T393 162T403 255Q403 313 393 351T365 413T325 446T277 456Q252 456 230 447T191 416T164 357T154 264Q154 207 164 168T192 106T233 73T281 63ZM280 -13Q220
-13 172 6T91 60T40 145T22 257Q22 320 42 371T96 457T178 512T278 531Q337 531 385 513T466 460T518 375T536 263Q536 199 516 148T461 61T380 6T280 -13ZM149 653L200 746L387 621L362 571L149 653Z" />
<glyph unicode="&#xf3;" glyph-name="oacute" horiz-adv-x="558" d="M169 621L356 746L407 653L194 571L169 621ZM281 63Q305 63 327 72T366 103T393 162T403 255Q403 313 393 351T365 413T325 446T277 456Q252 456 230 447T191 416T164 357T154 264Q154 207 164
168T192 106T233 73T281 63ZM280 -13Q220 -13 172 6T91 60T40 145T22 257Q22 320 42 371T96 457T178 512T278 531Q337 531 385 513T466 460T518 375T536 263Q536 199 516 148T461 61T380 6T280 -13Z" />
<glyph unicode="&#xf4;" glyph-name="ocircumflex" horiz-adv-x="558" d="M132 611L248 737H309L426 611L399 574L279 645L158 574L132 611ZM281 63Q305 63 327 72T366 103T393 162T403 255Q403 313 393 351T365 413T325 446T277 456Q252 456 230 447T191 416T164
357T154 264Q154 207 164 168T192 106T233 73T281 63ZM280 -13Q220 -13 172 6T91 60T40 145T22 257Q22 320 42 371T96 457T178 512T278 531Q337 531 385 513T466 460T518 375T536 263Q536 199 516 148T461 61T380 6T280 -13Z" />
<glyph unicode="&#xf5;" glyph-name="otilde" horiz-adv-x="558" d="M281 63Q305 63 327 72T366 103T393 162T403 255Q403 313 393 351T365 413T325 446T277 456Q252 456 230 447T191 416T164 357T154 264Q154 207 164 168T192 106T233 73T281 63ZM280 -13Q220
-13 172 6T91 60T40 145T22 257Q22 320 42 371T96 457T178 512T278 531Q337 531 385 513T466 460T518 375T536 263Q536 199 516 148T461 61T380 6T280 -13ZM117 619Q137 664 164 690T227 717Q243 717 258 712T286 701T312 690T335 685Q351 685 363 693T389 723L440
694Q420 649 393 623T330 596Q313 596 299 601T271 612T245 623T222 628Q206 628 194 620T168 590L117 619Z" />
<glyph unicode="&#xf6;" glyph-name="odieresis" horiz-adv-x="558" d="M188 594Q161 594 141 612T121 659Q121 688 141 705T188 723Q216 723 236 706T256 659Q256 631 236 613T188 594ZM370 594Q342 594 322 612T302 659Q302 688 322 705T370 723Q398 723 417
706T437 659Q437 631 418 613T370 594ZM281 63Q305 63 327 72T366 103T393 162T403 255Q403 313 393 351T365 413T325 446T277 456Q252 456 230 447T191 416T164 357T154 264Q154 207 164 168T192 106T233 73T281 63ZM280 -13Q220 -13 172 6T91 60T40 145T22 257Q22
320 42 371T96 457T178 512T278 531Q337 531 385 513T466 460T518 375T536 263Q536 199 516 148T461 61T380 6T280 -13Z" />
<glyph unicode="&#xf7;" glyph-name="divide" horiz-adv-x="531" d="M265 91Q233 91 212 112T191 162Q191 192 212 213T265 234Q297 234 318 213T339 162Q339 134 318 113T265 91ZM53 382H478V299H53V382ZM265 446Q233 446 212 467T191 517Q191 547 212 568T265
589Q297 589 318 568T339 517Q339 488 318 467T265 446Z" />
<glyph unicode="&#xf8;" glyph-name="oslash" horiz-adv-x="558" d="M16 10L75 79Q49 113 36 158T22 257Q22 320 42 371T96 457T178 512T278 531Q368 531 431 488L481 546L531 507L478 446Q506 411 521 366T536 263Q536 199 516 148T461 61T380 6T280 -13Q232
-13 192 -1T121 34L67 -28L16 10ZM281 62Q306 62 329 71T369 102T396 162T407 255Q407 284 405 308T397 352L184 107Q201 82 225 72T281 62ZM150 264Q150 237 152 215T158 174L369 417Q352 439 329 448T277 457Q252 457 229 448T189 417T161 358T150 264Z" />
<glyph unicode="&#xf9;" glyph-name="ugrave" horiz-adv-x="601" d="M223 -11Q143 -11 109 29T74 139V437L5 453V511L186 529L199 522V173Q199 126 216 104T284 82Q322 82 345 90T389 106V437L323 453V511L502 529L515 522V85L583 69V13L408 -10L395 -4V53H389Q360
24 319 7T223 -11ZM163 653L214 746L401 621L376 571L163 653Z" />
<glyph unicode="&#xfa;" glyph-name="uacute" horiz-adv-x="601" d="M184 621L371 746L422 653L209 571L184 621ZM223 -11Q143 -11 109 29T74 139V437L5 453V511L186 529L199 522V173Q199 126 216 104T284 82Q322 82 345 90T389 106V437L323 453V511L502 529L515
522V85L583 69V13L408 -10L395 -4V53H389Q360 24 319 7T223 -11Z" />
<glyph unicode="&#xfb;" glyph-name="ucircumflex" horiz-adv-x="601" d="M146 611L262 737H323L440 611L413 574L293 645L172 574L146 611ZM223 -11Q143 -11 109 29T74 139V437L5 453V511L186 529L199 522V173Q199 126 216 104T284 82Q322 82 345 90T389 106V437L323
453V511L502 529L515 522V85L583 69V13L408 -10L395 -4V53H389Q360 24 319 7T223 -11Z" />
<glyph unicode="&#xfc;" glyph-name="udieresis" horiz-adv-x="601" d="M202 594Q175 594 155 612T135 659Q135 688 155 705T202 723Q230 723 250 706T270 659Q270 631 250 613T202 594ZM384 594Q356 594 336 612T316 659Q316 688 336 705T384 723Q412 723 431
706T451 659Q451 631 432 613T384 594ZM223 -11Q143 -11 109 29T74 139V437L5 453V511L186 529L199 522V173Q199 126 216 104T284 82Q322 82 345 90T389 106V437L323 453V511L502 529L515 522V85L583 69V13L408 -10L395 -4V53H389Q360 24 319 7T223 -11Z" />
<glyph unicode="&#xfd;" glyph-name="yacute" horiz-adv-x="555" d="M141 -201Q118 -201 94 -196T56 -183V-107Q73 -111 84 -113T109 -115Q148 -115 171 -100T212 -47L236 12L53 450L1 464V521H249V464L188 451L302 153H306L407 450L348 464V521H553V464L502 450L306
-69Q294 -102 279 -127T245 -168T200 -193T141 -201ZM190 621L377 746L428 653L215 571L190 621Z" />
<glyph unicode="&#xfe;" glyph-name="thorn" horiz-adv-x="572" d="M-2 -145L66 -131V648L-3 664V724L178 747L192 741V478H197Q225 499 260 515T350 532Q386 532 421 521T484 481T529 404T546 281Q546 206 527 151T472 59T387 6T280 -12Q250 -12 231 -11T192
-5V-130L272 -145V-199H-2V-145ZM281 62Q311 62 335 71T377 104T404 165T414 261Q414 360 382 399T289 438Q258 438 233 431T192 417V88Q206 79 224 71T281 62Z" />
<glyph unicode="&#xff;" glyph-name="ydieresis" horiz-adv-x="555" d="M141 -201Q118 -201 94 -196T56 -183V-107Q73 -111 84 -113T109 -115Q148 -115 171 -100T212 -47L236 12L53 450L1 464V521H249V464L188 451L302 153H306L407 450L348 464V521H553V464L502
450L306 -69Q294 -102 279 -127T245 -168T200 -193T141 -201ZM208 594Q181 594 161 612T141 659Q141 688 161 705T208 723Q236 723 256 706T276 659Q276 631 256 613T208 594ZM390 594Q362 594 342 612T322 659Q322 688 342 705T390 723Q418 723 437 706T457 659Q457
631 438 613T390 594Z" />
<glyph unicode="&#x100;" glyph-name="Amacron" horiz-adv-x="682" d="M1 63L65 80L282 693H405L617 80L681 63V0H393V62L467 80L423 217H207L161 80L237 62V0H1V63ZM229 285H402L320 541H315L229 285ZM211 828H472V748H211V828Z" />
<glyph unicode="&#x101;" glyph-name="amacron" horiz-adv-x="500" d="M118 682H379V602H118V682ZM171 -13Q101 -13 58 25T15 129Q15 165 27 189T61 230T115 257T186 276L303 300V343Q303 369 299 387T283 416T250 433T193 438Q177 438 159 437T123 435T89 432T61
428V494Q77 501 99 507T146 519T198 527T254 531Q345 531 387 492T429 371V98Q429 75 440 69T472 62H494V8Q483 2 458 -4T403 -11Q368 -11 346 2T316 46H311Q291 23 257 5T171 -13ZM221 66Q247 66 269 75T303 96V231L221 225Q176 222 159 202T142 145Q142 107 160
87T221 66Z" />
<glyph unicode="&#x102;" glyph-name="Abreve" horiz-adv-x="682" d="M342 732Q279 732 243 767T202 856H277Q282 837 299 826T342 815Q369 815 385 826T407 856H482Q478 803 442 768T342 732ZM1 63L65 80L282 693H405L617 80L681 63V0H393V62L467 80L423 217H207L161
80L237 62V0H1V63ZM229 285H402L320 541H315L229 285Z" />
<glyph unicode="&#x103;" glyph-name="abreve" horiz-adv-x="500" d="M171 -13Q101 -13 58 25T15 129Q15 165 27 189T61 230T115 257T186 276L303 300V343Q303 369 299 387T283 416T250 433T193 438Q177 438 159 437T123 435T89 432T61 428V494Q77 501 99 507T146
519T198 527T254 531Q345 531 387 492T429 371V98Q429 75 440 69T472 62H494V8Q483 2 458 -4T403 -11Q368 -11 346 2T316 46H311Q291 23 257 5T171 -13ZM221 66Q247 66 269 75T303 96V231L221 225Q176 222 159 202T142 145Q142 107 160 87T221 66ZM501 583Q470
583 445 593T401 621T371 663T359 717H434Q439 691 457 678T501 664Q557 664 569 717H643Q642 688 631 664T602 621T558 593T501 583Z" />
<glyph unicode="&#x104;" glyph-name="Aogonek" horiz-adv-x="682" d="M571 -200Q511 -200 485 -177T459 -117Q459 -79 484 -50T542 0H393V62L467 80L423 217H207L161 80L237 62V0H1V63L65 80L282 693H405L617 80L681 63V0H616Q593 -27 578 -51T563 -100Q563 -138
609 -138Q617 -138 624 -138T638 -136V-189Q625 -194 610 -197T571 -200ZM402 285L320 541H315L229 285H402Z" />
<glyph unicode="&#x105;" glyph-name="aogonek" horiz-adv-x="500" d="M408 -200Q348 -200 322 -177T296 -117Q296 -80 321 -54T382 -10Q328 -2 316 46H311Q291 23 257 5T171 -13Q101 -13 58 25T15 129Q15 165 27 189T61 230T115 257T186 276L303 300V343Q303
369 299 387T283 416T250 433T193 438Q177 438 159 437T123 435T89 432T61 428V494Q77 501 99 507T146 519T198 527T254 531Q345 531 387 492T429 371V98Q429 75 440 69T472 62H494V8Q452 -8 427 -38T401 -100Q401 -138 446 -138Q454 -138 461 -138T475 -136V-189Q462
-194 447 -197T408 -200ZM221 66Q247 66 269 75T303 96V231L221 225Q176 222 159 202T142 145Q142 107 160 87T221 66Z" />
<glyph unicode="&#x106;" glyph-name="Cacute" horiz-adv-x="621" d="M357 -12Q284 -12 223 7T118 69T50 177T25 339Q25 442 54 512T133 625T245 686T374 705Q439 705 491 697T575 677L581 494H507L469 601Q452 609 425 616T365 623Q265 623 219 554T172 359Q172
210 219 141T373 71Q405 71 430 78T475 96L512 210H587L580 25Q542 8 489 -2T357 -12ZM262 726L242 778L440 883L481 787L262 726Z" />
<glyph unicode="&#x107;" glyph-name="cacute" horiz-adv-x="473" d="M282 -12Q218 -12 170 7T88 60T39 144T22 256Q22 329 43 381T102 466T191 515T301 531Q343 531 381 526T446 511V367H369L352 448Q341 451 329 453T291 456Q228 456 191 412T154 269Q154 214
166 177T201 118T253 86T320 76Q367 76 400 84T453 101V35Q429 18 387 3T282 -12ZM169 621L356 746L407 653L194 571L169 621Z" />
<glyph unicode="&#x108;" glyph-name="Ccircumflex" horiz-adv-x="621" d="M211 767L330 872H391L511 767L488 728L361 782L234 728L211 767ZM357 -12Q284 -12 223 7T118 69T50 177T25 339Q25 442 54 512T133 625T245 686T374 705Q439 705 491 697T575 677L581
494H507L469 601Q452 609 425 616T365 623Q265 623 219 554T172 359Q172 210 219 141T373 71Q405 71 430 78T475 96L512 210H587L580 25Q542 8 489 -2T357 -12Z" />
<glyph unicode="&#x109;" glyph-name="ccircumflex" horiz-adv-x="473" d="M282 -12Q218 -12 170 7T88 60T39 144T22 256Q22 329 43 381T102 466T191 515T301 531Q343 531 381 526T446 511V367H369L352 448Q341 451 329 453T291 456Q228 456 191 412T154 269Q154
214 166 177T201 118T253 86T320 76Q367 76 400 84T453 101V35Q429 18 387 3T282 -12ZM132 611L248 737H309L426 611L399 574L279 645L158 574L132 611Z" />
<glyph unicode="&#x10a;" glyph-name="Cdotaccent" horiz-adv-x="621" d="M354 733Q324 733 303 753T281 802Q281 832 302 851T354 870Q384 870 405 851T426 802Q426 773 405 753T354 733ZM357 -12Q284 -12 223 7T118 69T50 177T25 339Q25 442 54 512T133 625T245
686T374 705Q439 705 491 697T575 677L581 494H507L469 601Q452 609 425 616T365 623Q265 623 219 554T172 359Q172 210 219 141T373 71Q405 71 430 78T475 96L512 210H587L580 25Q542 8 489 -2T357 -12Z" />
<glyph unicode="&#x10b;" glyph-name="cdotaccent" horiz-adv-x="473" d="M282 -12Q218 -12 170 7T88 60T39 144T22 256Q22 329 43 381T102 466T191 515T301 531Q343 531 381 526T446 511V367H369L352 448Q341 451 329 453T291 456Q228 456 191 412T154 269Q154
214 166 177T201 118T253 86T320 76Q367 76 400 84T453 101V35Q429 18 387 3T282 -12ZM280 595Q250 595 229 614T207 663Q207 693 228 712T280 732Q310 732 331 713T352 663Q352 634 331 615T280 595Z" />
<glyph unicode="&#x10c;" glyph-name="Ccaron" horiz-adv-x="621" d="M506 841L386 735H325L206 841L229 879L356 825L483 879L506 841ZM357 -12Q284 -12 223 7T118 69T50 177T25 339Q25 442 54 512T133 625T245 686T374 705Q439 705 491 697T575 677L581 494H507L469
601Q452 609 425 616T365 623Q265 623 219 554T172 359Q172 210 219 141T373 71Q405 71 430 78T475 96L512 210H587L580 25Q542 8 489 -2T357 -12Z" />
<glyph unicode="&#x10d;" glyph-name="ccaron" horiz-adv-x="473" d="M133 704L159 741L280 670L400 741L427 704L310 578H249L133 704ZM282 -12Q218 -12 170 7T88 60T39 144T22 256Q22 329 43 381T102 466T191 515T301 531Q343 531 381 526T446 511V367H369L352
448Q341 451 329 453T291 456Q228 456 191 412T154 269Q154 214 166 177T201 118T253 86T320 76Q367 76 400 84T453 101V35Q429 18 387 3T282 -12Z" />
<glyph unicode="&#x10e;" glyph-name="Dcaron" horiz-adv-x="690" d="M482 841L362 735H301L182 841L205 879L332 825L459 879L482 841ZM19 62L100 80V613L20 631V693H319Q497 693 581 611T665 362Q665 181 580 91T327 0H19V62ZM323 78Q372 78 408 91T469 134T506
217T519 347Q519 435 505 488T463 569T395 606T303 615H239V78H323Z" />
<glyph unicode="&#x10f;" glyph-name="dcaron" horiz-adv-x="586" d="M240 -12Q204 -12 166 0T97 43T46 123T26 248Q26 323 45 376T99 464T182 515T288 531Q319 531 339 527T380 517V649L305 665V724L492 747L506 741V85L575 69V13L404 -10L391 -4V48H385Q364
22 328 5T240 -12ZM284 80Q314 80 339 88T380 104V429Q366 439 347 447T291 456Q261 456 237 447T195 416T167 357T157 262Q157 162 190 121T284 80ZM545 575L559 745L665 728L604 565L545 575Z" />
<glyph unicode="&#x110;" glyph-name="Dcroat" horiz-adv-x="690" d="M27 392H100V613L20 631V693H319Q497 693 581 611T665 362Q665 181 580 91T327 0H19V62L100 80V310H27V392ZM323 78Q372 78 408 91T469 134T506 217T519 347Q519 435 505 488T463 569T395 606T303
615H239V392H394V310H239V78H323Z" />
<glyph unicode="&#x111;" glyph-name="dcroat" horiz-adv-x="586" d="M219 622H380V649L305 665V724L492 747L506 741V622H573V576H506V85L575 69V13L404 -10L391 -4V48H385Q364 22 328 5T240 -12Q204 -12 166 0T97 43T46 123T26 248Q26 323 45 376T99 464T182
515T288 531Q319 531 339 527T380 517V576H219V622ZM284 80Q314 80 339 88T380 104V429Q366 439 347 447T291 456Q261 456 237 447T195 416T167 357T157 262Q157 162 190 121T284 80Z" />
<glyph unicode="&#x112;" glyph-name="Emacron" horiz-adv-x="606" d="M19 62L100 80V613L20 631V693H559L569 507H497L457 617H238V392H343L367 475H428V235H367L343 320H238V76H464L516 212H588L577 0H19V62ZM185 828H446V748H185V828Z" />
<glyph unicode="&#x113;" glyph-name="emacron" horiz-adv-x="514" d="M285 -12Q217 -12 168 7T86 63T38 150T22 264Q22 327 41 376T93 460T171 513T270 531Q387 531 439 461T492 251H152Q157 160 199 118T315 75Q369 75 403 83T467 101V37Q441 20 397 4T285 -12ZM360
321Q360 395 336 426T265 457Q216 457 187 425T152 314L360 321ZM137 682H398V602H137V682Z" />
<glyph unicode="&#x114;" glyph-name="Ebreve" horiz-adv-x="606" d="M19 62L100 80V613L20 631V693H559L569 507H497L457 617H238V392H343L367 475H428V235H367L343 320H238V76H464L516 212H588L577 0H19V62ZM316 732Q253 732 217 767T176 856H251Q256 837 273
826T316 815Q343 815 359 826T381 856H456Q452 803 416 768T316 732Z" />
<glyph unicode="&#x115;" glyph-name="ebreve" horiz-adv-x="514" d="M268 583Q237 583 212 593T168 621T138 663T126 717H201Q206 691 224 678T268 664Q324 664 336 717H410Q409 688 398 664T369 621T325 593T268 583ZM285 -12Q217 -12 168 7T86 63T38 150T22
264Q22 327 41 376T93 460T171 513T270 531Q387 531 439 461T492 251H152Q157 160 199 118T315 75Q369 75 403 83T467 101V37Q441 20 397 4T285 -12ZM360 321Q360 395 336 426T265 457Q216 457 187 425T152 314L360 321Z" />
<glyph unicode="&#x116;" glyph-name="Edotaccent" horiz-adv-x="606" d="M316 733Q286 733 265 753T243 802Q243 832 264 851T316 870Q346 870 367 851T388 802Q388 773 367 753T316 733ZM19 62L100 80V613L20 631V693H559L569 507H497L457 617H238V392H343L367
475H428V235H367L343 320H238V76H464L516 212H588L577 0H19V62Z" />
<glyph unicode="&#x117;" glyph-name="edotaccent" horiz-adv-x="514" d="M269 595Q239 595 218 614T196 663Q196 693 217 712T269 732Q299 732 320 713T341 663Q341 634 320 615T269 595ZM285 -12Q217 -12 168 7T86 63T38 150T22 264Q22 327 41 376T93 460T171
513T270 531Q387 531 439 461T492 251H152Q157 160 199 118T315 75Q369 75 403 83T467 101V37Q441 20 397 4T285 -12ZM360 321Q360 395 336 426T265 457Q216 457 187 425T152 314L360 321Z" />
<glyph unicode="&#x118;" glyph-name="Eogonek" horiz-adv-x="606" d="M19 62L100 80V613L20 631V693H559L569 507H497L457 617H238V392H343L367 475H428V235H367L343 320H238V76H464L516 212H588L577 0H512Q489 -27 474 -51T459 -100Q459 -138 505 -138Q513 -138
520 -138T534 -136V-189Q521 -194 505 -197T467 -200Q407 -200 381 -177T355 -117Q355 -79 381 -50T442 0H19V62Z" />
<glyph unicode="&#x119;" glyph-name="eogonek" horiz-adv-x="514" d="M405 -189Q392 -194 377 -197T338 -200Q278 -200 252 -177T226 -117Q226 -82 252 -55T314 -11Q309 -12 300 -12T285 -12Q217 -12 168 7T86 63T38 150T22 264Q22 327 41 376T93 460T171 513T270
531Q387 531 439 461T492 251H152Q157 160 199 118T315 75Q369 75 403 83T467 101V37Q442 24 418 9T374 -24T343 -61T331 -100Q331 -138 377 -138Q385 -138 392 -138T405 -136V-189ZM265 457Q216 457 187 425T152 314L360 321Q360 395 336 426T265 457Z" />
<glyph unicode="&#x11a;" glyph-name="Ecaron" horiz-adv-x="606" d="M466 841L346 735H285L166 841L189 879L316 825L443 879L466 841ZM19 62L100 80V613L20 631V693H559L569 507H497L457 617H238V392H343L367 475H428V235H367L343 320H238V76H464L516 212H588L577
0H19V62Z" />
<glyph unicode="&#x11b;" glyph-name="ecaron" horiz-adv-x="514" d="M285 -12Q217 -12 168 7T86 63T38 150T22 264Q22 327 41 376T93 460T171 513T270 531Q387 531 439 461T492 251H152Q157 160 199 118T315 75Q369 75 403 83T467 101V37Q441 20 397 4T285 -12ZM360
321Q360 395 336 426T265 457Q216 457 187 425T152 314L360 321ZM121 704L147 741L268 670L388 741L415 704L298 578H237L121 704Z" />
<glyph unicode="&#x11c;" glyph-name="Gcircumflex" horiz-adv-x="676" d="M380 -13Q297 -13 232 6T120 68T50 177T25 339Q25 442 55 512T135 625T250 686T384 705Q452 705 504 697T589 677L597 494H523L484 600Q464 611 437 617T372 623Q270 623 221 555T172
359Q172 210 218 140T374 69Q404 69 426 74T466 84V247L385 264V326H666V264L599 247V21Q557 6 501 -3T380 -13ZM217 767L336 872H397L517 767L494 728L367 782L240 728L217 767Z" />
<glyph unicode="&#x11d;" glyph-name="gcircumflex" horiz-adv-x="526" d="M116 611L232 737H293L410 611L383 574L263 645L142 574L116 611ZM231 -205Q171 -205 129 -195T59 -167T18 -128T5 -83Q5 -41 35 -13T108 31V36Q80 46 64 65T48 111Q48 141 67 169T118
221Q83 241 63 274T42 355Q42 398 58 430T102 485T169 519T253 531Q312 531 358 514L515 536V453L429 458Q446 440 455 418T464 366Q464 323 448 291T404 236T337 202T253 190Q208 190 169 201Q158 190 153 178T147 154Q147 143 155 134T184 125H356Q388 125 417
119T467 96T501 55T514 -9Q514 -49 497 -84T444 -147T356 -189T231 -205ZM241 -131Q283 -131 313 -124T363 -104T392 -75T401 -40Q401 -9 382 3T322 15H170Q148 5 136 -14T123 -60Q123 -92 150 -111T241 -131ZM253 256Q293 256 318 280T343 360Q343 419 317 442T253
466Q213 466 189 441T164 362Q164 304 189 280T253 256Z" />
<glyph unicode="&#x11e;" glyph-name="Gbreve" horiz-adv-x="676" d="M380 -13Q297 -13 232 6T120 68T50 177T25 339Q25 442 55 512T135 625T250 686T384 705Q452 705 504 697T589 677L597 494H523L484 600Q464 611 437 617T372 623Q270 623 221 555T172 359Q172
210 218 140T374 69Q404 69 426 74T466 84V247L385 264V326H666V264L599 247V21Q557 6 501 -3T380 -13ZM360 732Q297 732 261 767T220 856H295Q300 837 317 826T360 815Q387 815 403 826T425 856H500Q496 803 460 768T360 732Z" />
<glyph unicode="&#x11f;" glyph-name="gbreve" horiz-adv-x="526" d="M231 -205Q171 -205 129 -195T59 -167T18 -128T5 -83Q5 -41 35 -13T108 31V36Q80 46 64 65T48 111Q48 141 67 169T118 221Q83 241 63 274T42 355Q42 398 58 430T102 485T169 519T253 531Q312
531 358 514L515 536V453L429 458Q446 440 455 418T464 366Q464 323 448 291T404 236T337 202T253 190Q208 190 169 201Q158 190 153 178T147 154Q147 143 155 134T184 125H356Q388 125 417 119T467 96T501 55T514 -9Q514 -49 497 -84T444 -147T356 -189T231 -205ZM241
-131Q283 -131 313 -124T363 -104T392 -75T401 -40Q401 -9 382 3T322 15H170Q148 5 136 -14T123 -60Q123 -92 150 -111T241 -131ZM253 256Q293 256 318 280T343 360Q343 419 317 442T253 466Q213 466 189 441T164 362Q164 304 189 280T253 256ZM263 583Q232 583
207 593T163 621T133 663T121 717H196Q201 691 219 678T263 664Q319 664 331 717H405Q404 688 393 664T364 621T320 593T263 583Z" />
<glyph unicode="&#x120;" glyph-name="Gdotaccent" horiz-adv-x="676" d="M380 -13Q297 -13 232 6T120 68T50 177T25 339Q25 442 55 512T135 625T250 686T384 705Q452 705 504 697T589 677L597 494H523L484 600Q464 611 437 617T372 623Q270 623 221 555T172 359Q172
210 218 140T374 69Q404 69 426 74T466 84V247L385 264V326H666V264L599 247V21Q557 6 501 -3T380 -13ZM360 733Q330 733 309 753T287 802Q287 832 308 851T360 870Q390 870 411 851T432 802Q432 773 411 753T360 733Z" />
<glyph unicode="&#x121;" glyph-name="gdotaccent" horiz-adv-x="526" d="M263 595Q233 595 212 614T190 663Q190 693 211 712T263 732Q293 732 314 713T335 663Q335 634 314 615T263 595ZM231 -205Q171 -205 129 -195T59 -167T18 -128T5 -83Q5 -41 35 -13T108
31V36Q80 46 64 65T48 111Q48 141 67 169T118 221Q83 241 63 274T42 355Q42 398 58 430T102 485T169 519T253 531Q312 531 358 514L515 536V453L429 458Q446 440 455 418T464 366Q464 323 448 291T404 236T337 202T253 190Q208 190 169 201Q158 190 153 178T147
154Q147 143 155 134T184 125H356Q388 125 417 119T467 96T501 55T514 -9Q514 -49 497 -84T444 -147T356 -189T231 -205ZM241 -131Q283 -131 313 -124T363 -104T392 -75T401 -40Q401 -9 382 3T322 15H170Q148 5 136 -14T123 -60Q123 -92 150 -111T241 -131ZM253
256Q293 256 318 280T343 360Q343 419 317 442T253 466Q213 466 189 441T164 362Q164 304 189 280T253 256Z" />
<glyph unicode="&#x122;" glyph-name="Gcommaaccent" horiz-adv-x="676" d="M380 -13Q297 -13 232 6T120 68T50 177T25 339Q25 442 55 512T135 625T250 686T384 705Q452 705 504 697T589 677L597 494H523L484 600Q464 611 437 617T372 623Q270 623 221 555T172
359Q172 210 218 140T374 69Q404 69 426 74T466 84V247L385 264V326H666V264L599 247V21Q557 6 501 -3T380 -13ZM288 -185Q295 -155 298 -119T301 -40H425Q420 -80 408 -118T374 -185H288V-185Z" />
<glyph unicode="&#x123;" glyph-name="gcommaaccent" horiz-adv-x="526" d="M231 -205Q171 -205 129 -195T59 -167T18 -128T5 -83Q5 -41 35 -13T108 31V36Q80 46 64 65T48 111Q48 141 67 169T118 221Q83 241 63 274T42 355Q42 398 58 430T102 485T169 519T253
531Q312 531 358 514L515 536V453L429 458Q446 440 455 418T464 366Q464 323 448 291T404 236T337 202T253 190Q208 190 169 201Q158 190 153 178T147 154Q147 143 155 134T184 125H356Q388 125 417 119T467 96T501 55T514 -9Q514 -49 497 -84T444 -147T356 -189T231
-205ZM241 -131Q283 -131 313 -124T363 -104T392 -75T401 -40Q401 -9 382 3T322 15H170Q148 5 136 -14T123 -60Q123 -92 150 -111T241 -131ZM253 256Q293 256 318 280T343 360Q343 419 317 442T253 466Q213 466 189 441T164 362Q164 304 189 280T253 256ZM337 746Q330
717 327 680T324 601H200Q205 641 217 679T251 746H337V746Z" />
<glyph unicode="&#x124;" glyph-name="Hcircumflex" horiz-adv-x="741" d="M19 62L100 80V613L19 631V693H315V631L238 613V391H505V613L427 631V693H722V631L643 613V80L723 62V0H427V62L505 79V318H238V79L315 62V0H19V62ZM221 767L340 872H401L521 767L498
728L371 782L244 728L221 767Z" />
<glyph unicode="&#x125;" glyph-name="hcircumflex" horiz-adv-x="600" d="M14 55L82 71V649L13 665V724L196 747L209 740V476H214Q252 500 292 515T382 531Q449 531 486 501T524 396V71L591 55V0H336V55L398 70V357Q398 402 376 419T308 436Q281 436 257 430T209
416V70L270 55V0H14V55ZM154 821L273 926H334L454 821L431 782L304 836L177 782L154 821Z" />
<glyph unicode="&#x126;" glyph-name="Hbar" horiz-adv-x="741" d="M17 532H100V613L19 631V693H315V632L238 614V532H505V614L427 632V693H722V631L643 613V532H724V476H643V80L723 62V0H427V62L505 79V318H238V79L315 62V0H19V62L100 80V476H17V532ZM505 388V476H238V388H505Z"
/>
<glyph unicode="&#x127;" glyph-name="hbar" horiz-adv-x="600" d="M4 622H82V649L13 665V724L196 747L209 740V622H361V576H209V476H214Q252 500 292 515T382 531Q449 531 486 501T524 396V71L591 55V0H336V55L398 70V357Q398 402 376 419T308 436Q281 436 257
430T209 416V70L270 55V0H14V55L82 71V576H4V622Z" />
<glyph unicode="&#x128;" glyph-name="Itilde" horiz-adv-x="338" d="M19 62L100 80V613L19 631V693H319V631L239 613V80L319 62V0H19V62ZM264 761Q283 806 310 832T373 858Q389 858 404 853T434 843T460 832T484 827Q500 827 512 835T538 865L589 837Q570 792
543 766T479 739Q462 739 447 744T418 754T392 765T368 770Q352 770 340 762T314 732L264 761Z" />
<glyph unicode="&#x129;" glyph-name="itilde" horiz-adv-x="289" d="M15 55L82 71V431L9 447V506L196 530L209 523V71L276 55V0H15V55ZM236 619Q256 664 283 690T346 717Q362 717 377 712T405 701T431 690T454 685Q470 685 482 693T508 723L559 694Q539 649 512
623T449 596Q432 596 418 601T390 612T364 623T341 628Q325 628 313 620T287 590L236 619Z" />
<glyph unicode="&#x12a;" glyph-name="Imacron" horiz-adv-x="338" d="M295 828H556V748H295V828ZM19 62L100 80V613L19 631V693H319V631L239 613V80L319 62V0H19V62Z" />
<glyph unicode="&#x12b;" glyph-name="imacron" horiz-adv-x="289" d="M15 55L82 71V431L9 447V506L196 530L209 523V71L276 55V0H15V55ZM8 682H253V602H8V682Z" />
<glyph unicode="&#x12c;" glyph-name="Ibreve" horiz-adv-x="338" d="M426 732Q363 732 327 767T286 856H361Q366 837 383 826T426 815Q453 815 469 826T491 856H566Q562 803 526 768T426 732ZM19 62L100 80V613L19 631V693H319V631L239 613V80L319 62V0H19V62Z" />
<glyph unicode="&#x12d;" glyph-name="ibreve" horiz-adv-x="289" d="M15 55L82 71V431L9 447V506L196 530L209 523V71L276 55V0H15V55ZM397 583Q366 583 341 593T297 621T267 663T255 717H330Q335 691 353 678T397 664Q453 664 465 717H539Q538 688 527 664T498
621T454 593T397 583Z" />
<glyph unicode="&#x12e;" glyph-name="Iogonek" horiz-adv-x="338" d="M19 62L100 80V613L19 631V693H319V631L239 613V80L319 62V0H241Q218 -27 207 -51T196 -100Q196 -138 241 -138Q249 -138 256 -138T270 -136V-189Q257 -194 242 -197T203 -200Q143 -200 117
-177T91 -117Q91 -80 114 -50T166 0H19V62Z" />
<glyph unicode="&#x12f;" glyph-name="iogonek" horiz-adv-x="289" d="M15 55L82 71V431L9 447V506L196 530L209 523V71L276 55V0H213Q191 -27 177 -51T163 -100Q163 -138 209 -138Q217 -138 224 -138T238 -136V-189Q225 -194 209 -197T170 -200Q111 -200 85 -177T59
-117Q59 -97 66 -80T86 -48T114 -21T145 0H15V55ZM141 595Q111 595 90 614T68 663Q68 693 89 712T141 732Q172 732 193 713T215 663Q215 634 194 615T141 595Z" />
<glyph unicode="&#x130;" glyph-name="Idotaccent" horiz-adv-x="338" d="M19 62L100 80V613L19 631V693H319V631L239 613V80L319 62V0H19V62ZM426 733Q396 733 375 753T353 802Q353 832 374 851T426 870Q456 870 477 851T498 802Q498 773 477 753T426 733Z" />
<glyph unicode="&#x131;" glyph-name="dotlessi" horiz-adv-x="289" d="M15 55L82 71V431L9 447V506L196 530L209 523V71L276 55V0H15V55Z" />
<glyph unicode="&#x132;" glyph-name="IJ" horiz-adv-x="756" d="M467 -9Q421 -9 394 -1T348 16V96Q368 91 387 87T436 82Q478 82 503 102T528 183V613L448 631V693H746V631L667 613V172Q667 84 617 38T467 -9ZM19 62L100 80V613L19 631V693H319V631L239 613V80L319
62V0H19V62Z" />
<glyph unicode="&#x133;" glyph-name="ij" horiz-adv-x="557" d="M15 55L82 71V431L9 447V506L196 530L209 523V71L276 55V0H15V55ZM141 595Q111 595 90 614T68 663Q68 693 89 712T141 732Q172 732 193 713T215 663Q215 634 194 615T141 595ZM321 -197Q297 -197
277 -193T239 -182V-116Q250 -118 261 -118T284 -119Q320 -119 343 -102T367 -32V431L293 447V506L480 530L493 523V-37Q493 -115 451 -156T321 -197ZM425 595Q395 595 374 614T352 663Q352 693 373 712T425 732Q456 732 477 713T499 663Q499 634 478 615T425 595Z"
/>
<glyph unicode="&#x134;" glyph-name="Jcircumflex" horiz-adv-x="430" d="M141 -9Q91 -9 61 -1T11 18V97Q34 91 53 87T108 82Q151 82 176 102T202 183V613L121 631V693H420V631L341 613V172Q341 84 290 38T141 -9ZM119 767L238 872H299L419 767L396 728L269 782L142
728L119 767Z" />
<glyph unicode="&#x135;" glyph-name="jcircumflex" horiz-adv-x="278" d="M41 -197Q17 -197 -3 -193T-41 -182V-116Q-30 -118 -19 -118T4 -119Q40 -119 63 -102T87 -32V431L13 447V506L200 530L213 523V-37Q213 -115 171 -156T41 -197ZM248 611L364 737H425L542
611L515 574L395 645L274 574L248 611Z" />
<glyph unicode="&#x136;" glyph-name="Kcommaaccent" horiz-adv-x="684" d="M274 310V357L484 613L420 631V693H659V631L595 613L390 372L602 80L670 62V0H494L274 310ZM19 62L100 80V613L19 631V693H318V631L238 614V79L318 62V0H19V62ZM294 -185Q301 -155 304
-119T307 -40H431Q426 -80 414 -118T380 -185H294V-185Z" />
<glyph unicode="&#x137;" glyph-name="kcommaaccent" horiz-adv-x="558" d="M237 240V274L375 450L317 464V521H537V464L469 449L342 296L499 71L555 55V0H404L237 240ZM14 55L82 70V649L13 665V724L195 747L209 740V69L274 55V0H14V55ZM221 -185Q228 -155 231
-119T234 -40H358Q353 -80 341 -118T307 -185H221V-185Z" />
<glyph unicode="&#x139;" glyph-name="Lacute" horiz-adv-x="573" d="M19 62L100 80V613L19 631V693H326V631L238 614V77H440L489 234H560L547 0H19V62ZM333 726L313 778L511 883L552 787L333 726Z" />
<glyph unicode="&#x13a;" glyph-name="lacute" horiz-adv-x="290" d="M14 55L83 71V649L8 665V724L196 747L209 740V71L277 55V0H14V55ZM313 773L293 825L491 930L532 834L313 773Z" />
<glyph unicode="&#x13b;" glyph-name="Lcommaaccent" horiz-adv-x="573" d="M19 62L100 80V613L19 631V693H326V631L238 614V77H440L489 234H560L547 0H19V62ZM223 -185Q230 -155 233 -119T236 -40H360Q355 -80 343 -118T309 -185H223V-185Z" />
<glyph unicode="&#x13c;" glyph-name="lcommaaccent" horiz-adv-x="290" d="M14 55L83 71V649L8 665V724L196 747L209 740V71L277 55V0H14V55ZM328 -185Q335 -155 338 -119T341 -40H465Q460 -80 448 -118T414 -185H328V-185Z" />
<glyph unicode="&#x13d;" glyph-name="Lcaron" horiz-adv-x="573" d="M392 716L504 700L444 534L377 544L392 716ZM19 62L100 80V613L19 631V693H326V631L238 614V77H440L489 234H560L547 0H19V62Z" />
<glyph unicode="&#x13e;" glyph-name="lcaron" horiz-adv-x="290" d="M14 55L83 71V649L8 665V724L196 747L209 740V71L277 55V0H14V55ZM249 575L263 745L369 728L308 565L249 575Z" />
<glyph unicode="&#x13f;" glyph-name="Ldot" horiz-adv-x="573" d="M19 62L100 80V613L19 631V693H326V631L238 614V77H440L489 230H560L547 0H19V62ZM471 310Q439 310 418 331T397 381Q397 411 418 432T471 453Q502 453 523 432T544 381Q544 352 523 331T471 310Z" />
<glyph unicode="&#x140;" glyph-name="ldot" horiz-adv-x="341" d="M316 294Q345 294 365 313T385 360Q385 389 365 408T316 428Q287 428 267 409T247 360Q247 332 267 313T316 294ZM14 55L83 71V649L8 665V724L196 747L209 740V71L277 55V0H14V55Z" />
<glyph unicode="&#x141;" glyph-name="Lslash" horiz-adv-x="573" d="M24 299L100 328V613L19 631V693H325V631L238 614V379L419 451V368L238 296V77H440L489 234H560L547 0H19V62L100 80V245L24 216V299Z" />
<glyph unicode="&#x142;" glyph-name="lslash" horiz-adv-x="290" d="M8 351L83 394V649L8 665V724L196 747L209 740V466L288 511V431L209 386V71L277 55V0H14V55L83 71V314L8 271V351Z" />
<glyph unicode="&#x143;" glyph-name="Nacute" horiz-adv-x="718" d="M19 61L100 80V613L19 631V693H264L537 223H542V612L461 631V693H707V632L635 613V0H518L198 553H194V80L276 61V0H19V61ZM298 726L278 778L476 883L517 787L298 726Z" />
<glyph unicode="&#x144;" glyph-name="nacute" horiz-adv-x="601" d="M14 55L82 71V431L13 447V506L190 530L203 523V474H209Q247 499 289 515T382 531Q449 531 486 501T524 396V71L591 55V0H336V55L398 70V357Q398 402 376 418T308 435Q281 435 257 430T209 416V70L270
55V0H14V55ZM195 621L382 746L433 653L220 571L195 621Z" />
<glyph unicode="&#x145;" glyph-name="Ncommaaccent" horiz-adv-x="718" d="M19 61L100 80V613L19 631V693H264L537 223H542V612L461 631V693H707V632L635 613V0H518L198 553H194V80L276 61V0H19V61ZM304 -185Q311 -155 314 -119T317 -40H441Q436 -80 424 -118T390
-185H304V-185Z" />
<glyph unicode="&#x146;" glyph-name="ncommaaccent" horiz-adv-x="601" d="M14 55L82 71V431L13 447V506L190 530L203 523V474H209Q247 499 289 515T382 531Q449 531 486 501T524 396V71L591 55V0H336V55L398 70V357Q398 402 376 418T308 435Q281 435 257 430T209
416V70L270 55V0H14V55ZM232 -185Q239 -155 242 -119T245 -40H369Q364 -80 352 -118T318 -185H232V-185Z" />
<glyph unicode="&#x147;" glyph-name="Ncaron" horiz-adv-x="718" d="M19 61L100 80V613L19 631V693H264L537 223H542V612L461 631V693H707V632L635 613V0H518L198 553H194V80L276 61V0H19V61ZM535 841L415 735H354L235 841L258 879L385 825L512 879L535 841Z" />
<glyph unicode="&#x148;" glyph-name="ncaron" horiz-adv-x="601" d="M14 55L82 71V431L13 447V506L190 530L203 523V474H209Q247 499 289 515T382 531Q449 531 486 501T524 396V71L591 55V0H336V55L398 70V357Q398 402 376 418T308 435Q281 435 257 430T209 416V70L270
55V0H14V55ZM157 704L183 741L304 670L424 741L451 704L334 578H273L157 704Z" />
<glyph unicode="&#x149;" glyph-name="napostrophe" horiz-adv-x="661" d="M73 55L141 71V431L72 447V506L249 530L262 523V474H268Q306 499 348 515T441 531Q508 531 545 501T583 396V71L650 55V0H395V55L457 70V357Q457 402 435 418T367 435Q340 435 316 430T268
416V70L329 55V0H73V55ZM204 481Q212 532 216 582T221 693H347Q339 635 325 582T285 481H204V481Z" />
<glyph unicode="&#x14a;" glyph-name="Eng" horiz-adv-x="718" d="M468 -179Q433 -179 409 -174T366 -160V-91Q394 -97 430 -97Q475 -97 501 -83T533 -20L198 553H194V80L276 61V0H19V61L100 80V613L19 631V693H264L537 223H542V612L461 631V693H707V632L635 613V-13Q635
-94 594 -136T468 -179Z" />
<glyph unicode="&#x14b;" glyph-name="eng" horiz-adv-x="583" d="M524 -37Q524 -115 482 -156T357 -197Q331 -197 312 -193T276 -182V-116Q295 -119 315 -119Q351 -119 374 -102T398 -32V357Q398 402 376 418T308 435Q281 435 257 430T209 416V70L273 55V0H14V55L82
71V431L13 447V506L190 530L203 523V474H209Q247 499 289 515T382 531Q449 531 486 501T524 396V-37Z" />
<glyph unicode="&#x14c;" glyph-name="Omacron" horiz-adv-x="694" d="M347 70Q436 70 479 141T523 338Q523 486 479 555T346 624Q302 624 269 606T214 552T182 468T171 356Q171 217 210 144T347 70ZM345 -12Q277 -12 219 10T118 78T50 190T25 345Q25 439 53 507T126
619T230 684T349 705Q416 705 474 683T576 616T643 505T668 350Q668 256 641 188T568 76T464 10T345 -12ZM216 828H477V748H216V828Z" />
<glyph unicode="&#x14d;" glyph-name="omacron" horiz-adv-x="558" d="M281 63Q305 63 327 72T366 103T393 162T403 255Q403 313 393 351T365 413T325 446T277 456Q252 456 230 447T191 416T164 357T154 264Q154 207 164 168T192 106T233 73T281 63ZM280 -13Q220
-13 172 6T91 60T40 145T22 257Q22 320 42 371T96 457T178 512T278 531Q337 531 385 513T466 460T518 375T536 263Q536 199 516 148T461 61T380 6T280 -13ZM148 682H409V602H148V682Z" />
<glyph unicode="&#x14e;" glyph-name="Obreve" horiz-adv-x="694" d="M347 70Q436 70 479 141T523 338Q523 486 479 555T346 624Q302 624 269 606T214 552T182 468T171 356Q171 217 210 144T347 70ZM345 -12Q277 -12 219 10T118 78T50 190T25 345Q25 439 53 507T126
619T230 684T349 705Q416 705 474 683T576 616T643 505T668 350Q668 256 641 188T568 76T464 10T345 -12ZM347 732Q284 732 248 767T207 856H282Q287 837 304 826T347 815Q374 815 390 826T412 856H487Q483 803 447 768T347 732Z" />
<glyph unicode="&#x14f;" glyph-name="obreve" horiz-adv-x="558" d="M278 583Q247 583 222 593T178 621T148 663T136 717H211Q216 691 234 678T278 664Q334 664 346 717H420Q419 688 408 664T379 621T335 593T278 583ZM281 63Q305 63 327 72T366 103T393 162T403
255Q403 313 393 351T365 413T325 446T277 456Q252 456 230 447T191 416T164 357T154 264Q154 207 164 168T192 106T233 73T281 63ZM280 -13Q220 -13 172 6T91 60T40 145T22 257Q22 320 42 371T96 457T178 512T278 531Q337 531 385 513T466 460T518 375T536 263Q536
199 516 148T461 61T380 6T280 -13Z" />
<glyph unicode="&#x150;" glyph-name="Ohungarumlaut" horiz-adv-x="694" d="M225 759L310 896L395 841L271 729L225 759ZM395 761L484 897L567 837L439 730L395 761ZM347 70Q436 70 479 141T523 338Q523 486 479 555T346 624Q302 624 269 606T214 552T182 468T171
356Q171 217 210 144T347 70ZM345 -12Q277 -12 219 10T118 78T50 190T25 345Q25 439 53 507T126 619T230 684T349 705Q416 705 474 683T576 616T643 505T668 350Q668 256 641 188T568 76T464 10T345 -12Z" />
<glyph unicode="&#x151;" glyph-name="ohungarumlaut" horiz-adv-x="558" d="M147 596L250 757L330 698L189 568L147 596ZM320 598L428 757L506 695L362 568L320 598ZM281 63Q305 63 327 72T366 103T393 162T403 255Q403 313 393 351T365 413T325 446T277 456Q252
456 230 447T191 416T164 357T154 264Q154 207 164 168T192 106T233 73T281 63ZM280 -13Q220 -13 172 6T91 60T40 145T22 257Q22 320 42 371T96 457T178 512T278 531Q337 531 385 513T466 460T518 375T536 263Q536 199 516 148T461 61T380 6T280 -13Z" />
<glyph unicode="&#x152;" glyph-name="OE" horiz-adv-x="938" d="M380 0Q199 0 112 82T25 331Q25 512 113 602T372 693H893L903 507H831L791 617H578V392H677L700 475H761V235H700L677 320H578V76H799L850 212H923L911 0H380ZM376 615Q326 615 288 602T224 559T185
476T171 346Q171 258 186 205T231 124T301 87T396 78H440V615H376Z" />
<glyph unicode="&#x153;" glyph-name="oe" horiz-adv-x="895" d="M666 -12Q591 -12 543 13T466 84Q434 37 387 12T280 -13Q220 -13 172 6T91 60T40 145T22 257Q22 320 42 371T96 457T178 512T278 531Q343 531 391 507T470 437Q499 483 545 507T651 531Q768 531
820 461T873 251H534Q539 160 581 118T697 75Q751 75 785 83T848 101V37Q822 20 779 4T666 -12ZM281 63Q305 63 327 72T366 103T393 162T403 255Q403 313 393 351T365 413T325 446T277 456Q252 456 230 447T191 416T164 357T154 264Q154 207 164 168T192 106T233
73T281 63ZM647 457Q597 457 568 425T534 314L741 321Q741 395 717 426T647 457Z" />
<glyph unicode="&#x154;" glyph-name="Racute" horiz-adv-x="663" d="M231 726L211 778L409 883L450 787L231 726ZM19 62L101 80V612L21 631V693H336Q467 693 527 642T587 499Q587 462 576 435T547 388T504 354T454 331V327L599 79L663 61V0H491L324 298H240V80L316
62V0H19V62ZM327 369Q361 369 383 379T420 406T440 447T446 497Q446 558 418 585T324 613H240V369H327Z" />
<glyph unicode="&#x155;" glyph-name="racute" horiz-adv-x="378" d="M14 55L82 71V431L13 447V506L190 530L203 523V453H209Q230 483 264 507T342 531Q349 531 357 530T369 527V416Q360 418 348 419T327 420Q291 420 262 413T209 391V71L288 55V0H14V55ZM363
621L550 746L601 653L388 571L363 621Z" />
<glyph unicode="&#x156;" glyph-name="Rcommaaccent" horiz-adv-x="663" d="M19 62L101 80V612L21 631V693H336Q467 693 527 642T587 499Q587 462 576 435T547 388T504 354T454 331V327L599 79L663 61V0H491L324 298H240V80L316 62V0H19V62ZM327 369Q361 369 383
379T420 406T440 447T446 497Q446 558 418 585T324 613H240V369H327ZM281 -185Q288 -155 291 -119T294 -40H418Q413 -80 401 -118T367 -185H281V-185Z" />
<glyph unicode="&#x157;" glyph-name="rcommaaccent" horiz-adv-x="378" d="M14 55L82 71V431L13 447V506L190 530L203 523V453H209Q230 483 264 507T342 531Q349 531 357 530T369 527V416Q360 418 348 419T327 420Q291 420 262 413T209 391V71L288 55V0H14V55ZM330
-185Q337 -155 340 -119T343 -40H467Q462 -80 450 -118T416 -185H330V-185Z" />
<glyph unicode="&#x158;" glyph-name="Rcaron" horiz-adv-x="663" d="M19 62L101 80V612L21 631V693H336Q467 693 527 642T587 499Q587 462 576 435T547 388T504 354T454 331V327L599 79L663 61V0H491L324 298H240V80L316 62V0H19V62ZM327 369Q361 369 383 379T420
406T440 447T446 497Q446 558 418 585T324 613H240V369H327ZM466 841L346 735H285L166 841L189 879L316 825L443 879L466 841Z" />
<glyph unicode="&#x159;" glyph-name="rcaron" horiz-adv-x="378" d="M325 704L351 741L472 670L592 741L619 704L502 578H441L325 704ZM14 55L82 71V431L13 447V506L190 530L203 523V453H209Q230 483 264 507T342 531Q349 531 357 530T369 527V416Q360 418 348
419T327 420Q291 420 262 413T209 391V71L288 55V0H14V55Z" />
<glyph unicode="&#x15a;" glyph-name="Sacute" horiz-adv-x="537" d="M253 -12Q192 -12 138 -3T46 22L38 191H114L144 95Q167 83 193 76T257 69Q319 69 349 99T380 172Q380 196 372 213T349 243T311 268T260 291L193 319Q160 332 133 348T87 386T58 439T47 510Q47
551 61 587T104 649T178 691T286 706Q351 706 394 698T467 680L475 523H400L376 604Q362 611 340 618T279 626Q231 626 200 605T168 539Q168 500 193 477T270 434L338 406Q376 391 407 375T462 337T497 282T510 205Q510 160 495 120T448 51T368 5T253 -12ZM192
726L172 778L370 883L411 787L192 726Z" />
<glyph unicode="&#x15b;" glyph-name="sacute" horiz-adv-x="443" d="M201 -13Q158 -13 113 -5T32 17L23 158H96L120 80Q133 73 155 67T208 60Q250 60 276 76T303 127Q303 160 284 175T218 204L162 220Q96 239 62 273T27 371Q27 404 39 433T77 484T141 518T232
531Q277 531 317 525T387 508V375H317L298 444Q286 450 269 454T224 459Q187 459 162 446T137 398Q137 369 156 354T226 324L285 307Q359 286 389 250T420 157Q420 121 407 90T367 36T299 0T201 -13ZM374 621L561 746L612 653L399 571L374 621Z" />
<glyph unicode="&#x15c;" glyph-name="Scircumflex" horiz-adv-x="537" d="M130 767L249 872H310L430 767L407 728L280 782L153 728L130 767ZM253 -12Q192 -12 138 -3T46 22L38 191H114L144 95Q167 83 193 76T257 69Q319 69 349 99T380 172Q380 196 372 213T349
243T311 268T260 291L193 319Q160 332 133 348T87 386T58 439T47 510Q47 551 61 587T104 649T178 691T286 706Q351 706 394 698T467 680L475 523H400L376 604Q362 611 340 618T279 626Q231 626 200 605T168 539Q168 500 193 477T270 434L338 406Q376 391 407 375T462
337T497 282T510 205Q510 160 495 120T448 51T368 5T253 -12Z" />
<glyph unicode="&#x15d;" glyph-name="scircumflex" horiz-adv-x="443" d="M201 -13Q158 -13 113 -5T32 17L23 158H96L120 80Q133 73 155 67T208 60Q250 60 276 76T303 127Q303 160 284 175T218 204L162 220Q96 239 62 273T27 371Q27 404 39 433T77 484T141 518T232
531Q277 531 317 525T387 508V375H317L298 444Q286 450 269 454T224 459Q187 459 162 446T137 398Q137 369 156 354T226 324L285 307Q359 286 389 250T420 157Q420 121 407 90T367 36T299 0T201 -13ZM336 611L452 737H513L630 611L603 574L483 645L362 574L336
611Z" />
<glyph unicode="&#x15e;" glyph-name="Scedilla" horiz-adv-x="537" d="M184 -173Q243 -166 264 -155T286 -126Q286 -109 269 -102T206 -93V-10Q158 -7 117 1T46 22L38 191H114L144 95Q167 83 193 76T257 69Q319 69 349 99T380 172Q380 196 372 213T349 243T311
268T260 291L193 319Q160 332 133 348T87 386T58 439T47 510Q47 551 61 587T104 649T178 691T286 706Q351 706 394 698T467 680L475 523H400L376 604Q362 611 340 618T279 626Q231 626 200 605T168 539Q168 500 193 477T270 434L338 406Q376 391 407 375T462 337T497
282T510 205Q510 160 495 121T450 53T372 7T261 -12V-45Q323 -48 350 -65T378 -119Q378 -159 333 -185T184 -216V-173Z" />
<glyph unicode="&#x15f;" glyph-name="scedilla" horiz-adv-x="443" d="M130 -173Q189 -166 210 -155T232 -126Q232 -109 215 -102T152 -93V-10Q120 -7 89 0T32 17L23 158H96L120 80Q133 73 155 67T208 60Q250 60 276 76T303 127Q303 160 284 175T218 204L162
220Q96 239 62 273T27 371Q27 404 39 433T77 484T141 518T232 531Q277 531 317 525T387 508V375H317L298 444Q286 450 269 454T224 459Q187 459 162 446T137 398Q137 369 156 354T226 324L285 307Q359 286 389 250T420 157Q420 121 407 90T368 37T302 1T207 -13V-45Q269
-48 296 -65T324 -119Q324 -159 279 -185T130 -216V-173Z" />
<glyph unicode="&#x160;" glyph-name="Scaron" horiz-adv-x="537" d="M430 841L310 735H249L130 841L153 879L280 825L407 879L430 841ZM253 -12Q192 -12 138 -3T46 22L38 191H114L144 95Q167 83 193 76T257 69Q319 69 349 99T380 172Q380 196 372 213T349 243T311
268T260 291L193 319Q160 332 133 348T87 386T58 439T47 510Q47 551 61 587T104 649T178 691T286 706Q351 706 394 698T467 680L475 523H400L376 604Q362 611 340 618T279 626Q231 626 200 605T168 539Q168 500 193 477T270 434L338 406Q376 391 407 375T462 337T497
282T510 205Q510 160 495 120T448 51T368 5T253 -12Z" />
<glyph unicode="&#x161;" glyph-name="scaron" horiz-adv-x="443" d="M336 704L362 741L483 670L603 741L630 704L513 578H452L336 704ZM201 -13Q158 -13 113 -5T32 17L23 158H96L120 80Q133 73 155 67T208 60Q250 60 276 76T303 127Q303 160 284 175T218 204L162
220Q96 239 62 273T27 371Q27 404 39 433T77 484T141 518T232 531Q277 531 317 525T387 508V375H317L298 444Q286 450 269 454T224 459Q187 459 162 446T137 398Q137 369 156 354T226 324L285 307Q359 286 389 250T420 157Q420 121 407 90T367 36T299 0T201 -13Z"
/>
<glyph unicode="&#x162;" glyph-name="Tcommaaccent" horiz-adv-x="620" d="M156 62L241 80V616H119L84 481H10L20 693H600L610 481H536L501 616H380V80L464 62V0H156V62ZM238 -185Q245 -155 248 -119T251 -40H375Q370 -80 358 -118T324 -185H238V-185Z" />
<glyph unicode="&#x163;" glyph-name="tcommaaccent" horiz-adv-x="359" d="M224 -10Q152 -10 116 19T79 123V443H12V496L90 521L108 643H205V521H330V443H205V146Q205 106 221 89T280 72Q295 72 309 74T338 79V20Q321 9 291 0T224 -10ZM383 -185Q390 -155 393
-119T396 -40H520Q515 -80 503 -118T469 -185H383V-185Z" />
<glyph unicode="&#x164;" glyph-name="Tcaron" horiz-adv-x="620" d="M156 62L241 80V616H119L84 481H10L20 693H600L610 481H536L501 616H380V80L464 62V0H156V62ZM460 841L340 735H279L160 841L183 879L310 825L437 879L460 841Z" />
<glyph unicode="&#x165;" glyph-name="tcaron" horiz-adv-x="359" d="M224 -10Q152 -10 116 19T79 123V443H12V496L90 521L108 643H205V521H330V443H205V146Q205 106 221 89T280 72Q295 72 309 74T338 79V20Q321 9 291 0T224 -10ZM254 575L268 745L374 728L313
565L254 575Z" />
<glyph unicode="&#x166;" glyph-name="Tbar" horiz-adv-x="620" d="M100 412H241V616H119L84 481H10L20 693H600L610 481H536L501 616H380V412H520V347H380V80L464 62V0H156V62L241 80V347H100V412Z" />
<glyph unicode="&#x167;" glyph-name="tbar" horiz-adv-x="359" d="M12 356H79V443H12V496L90 521L108 643H205V521H330V443H205V356H330V303H205V146Q205 106 221 89T280 72Q295 72 309 74T338 79V20Q321 9 291 0T224 -10Q152 -10 116 19T79 123V303H12V356Z" />
<glyph unicode="&#x168;" glyph-name="Utilde" horiz-adv-x="691" d="M208 761Q227 806 254 832T317 858Q333 858 348 853T378 843T404 832T428 827Q444 827 456 835T482 865L533 837Q514 792 487 766T423 739Q406 739 391 744T362 754T336 765T312 770Q296 770
284 762T258 732L208 761ZM354 -13Q285 -13 234 3T150 49T100 121T83 215V613L5 631V693H301V631L222 614V231Q222 147 262 110T373 73Q446 73 485 110T524 231V613L445 630V693H686V631L616 613V225Q616 171 600 128T551 53T469 4T354 -13Z" />
<glyph unicode="&#x169;" glyph-name="utilde" horiz-adv-x="601" d="M223 -11Q143 -11 109 29T74 139V437L5 453V511L186 529L199 522V173Q199 126 216 104T284 82Q322 82 345 90T389 106V437L323 453V511L502 529L515 522V85L583 69V13L408 -10L395 -4V53H389Q360
24 319 7T223 -11ZM132 619Q152 664 179 690T242 717Q258 717 273 712T301 701T327 690T350 685Q366 685 378 693T404 723L455 694Q435 649 408 623T345 596Q328 596 314 601T286 612T260 623T237 628Q221 628 209 620T183 590L132 619Z" />
<glyph unicode="&#x16a;" glyph-name="Umacron" horiz-adv-x="691" d="M354 -13Q285 -13 234 3T150 49T100 121T83 215V613L5 631V693H301V631L222 614V231Q222 147 262 110T373 73Q446 73 485 110T524 231V613L445 630V693H686V631L616 613V225Q616 171 600 128T551
53T469 4T354 -13ZM240 828H501V748H240V828Z" />
<glyph unicode="&#x16b;" glyph-name="umacron" horiz-adv-x="601" d="M223 -11Q143 -11 109 29T74 139V437L5 453V511L186 529L199 522V173Q199 126 216 104T284 82Q322 82 345 90T389 106V437L323 453V511L502 529L515 522V85L583 69V13L408 -10L395 -4V53H389Q360
24 319 7T223 -11ZM162 682H423V602H162V682Z" />
<glyph unicode="&#x16c;" glyph-name="Ubreve" horiz-adv-x="691" d="M354 -13Q285 -13 234 3T150 49T100 121T83 215V613L5 631V693H301V631L222 614V231Q222 147 262 110T373 73Q446 73 485 110T524 231V613L445 630V693H686V631L616 613V225Q616 171 600 128T551
53T469 4T354 -13ZM371 732Q308 732 272 767T231 856H306Q311 837 328 826T371 815Q398 815 414 826T436 856H511Q507 803 471 768T371 732Z" />
<glyph unicode="&#x16d;" glyph-name="ubreve" horiz-adv-x="601" d="M223 -11Q143 -11 109 29T74 139V437L5 453V511L186 529L199 522V173Q199 126 216 104T284 82Q322 82 345 90T389 106V437L323 453V511L502 529L515 522V85L583 69V13L408 -10L395 -4V53H389Q360
24 319 7T223 -11ZM293 583Q262 583 237 593T193 621T163 663T151 717H226Q231 691 249 678T293 664Q349 664 361 717H435Q434 688 423 664T394 621T350 593T293 583Z" />
<glyph unicode="&#x16e;" glyph-name="Uring" horiz-adv-x="691" d="M354 -13Q285 -13 234 3T150 49T100 121T83 215V613L5 631V693H301V631L222 614V231Q222 147 262 110T373 73Q446 73 485 110T524 231V613L445 630V693H686V631L616 613V225Q616 171 600 128T551
53T469 4T354 -13ZM371 1010Q393 1010 406 1023T419 1059Q419 1080 406 1094T371 1108Q349 1108 336 1094T323 1059Q323 1037 336 1024T371 1010ZM371 962Q326 962 298 990T269 1059Q269 1099 297 1127T371 1156Q415 1156 444 1128T473 1059Q473 1019 444 991T371
962Z" />
<glyph unicode="&#x16f;" glyph-name="uring" horiz-adv-x="601" d="M287 622Q309 622 322 635T335 671Q335 692 322 705T287 719Q265 719 252 706T239 671Q239 648 252 635T287 622ZM287 574Q242 574 214 602T185 671Q185 711 213 739T287 767Q331 767 360 739T389
671Q389 631 360 603T287 574ZM223 -11Q143 -11 109 29T74 139V437L5 453V511L186 529L199 522V173Q199 126 216 104T284 82Q322 82 345 90T389 106V437L323 453V511L502 529L515 522V85L583 69V13L408 -10L395 -4V53H389Q360 24 319 7T223 -11Z" />
<glyph unicode="&#x170;" glyph-name="Uhungarumlaut" horiz-adv-x="691" d="M248 759L333 896L418 841L294 729L248 759ZM418 761L507 897L590 837L462 730L418 761ZM354 -13Q285 -13 234 3T150 49T100 121T83 215V613L5 631V693H301V631L222 614V231Q222 147
262 110T373 73Q446 73 485 110T524 231V613L445 630V693H686V631L616 613V225Q616 171 600 128T551 53T469 4T354 -13Z" />
<glyph unicode="&#x171;" glyph-name="uhungarumlaut" horiz-adv-x="601" d="M161 596L264 757L344 698L203 568L161 596ZM334 598L442 757L520 695L376 568L334 598ZM223 -11Q143 -11 109 29T74 139V437L5 453V511L186 529L199 522V173Q199 126 216 104T284 82Q322
82 345 90T389 106V437L323 453V511L502 529L515 522V85L583 69V13L408 -10L395 -4V53H389Q360 24 319 7T223 -11Z" />
<glyph unicode="&#x172;" glyph-name="Uogonek" horiz-adv-x="691" d="M351 -13Q283 -13 233 3T150 49T100 121T83 215V613L5 631V693H301V631L222 614V231Q222 147 262 110T373 73Q446 73 485 110T524 231V613L445 630V693H686V631L616 613V225Q616 156 590 105T512
24Q492 12 472 1T435 -25T408 -58T398 -100Q398 -138 444 -138Q452 -138 459 -138T473 -136V-189Q460 -194 444 -197T405 -200Q346 -200 320 -177T294 -117Q294 -82 317 -56T372 -12Q368 -13 362 -13T351 -13Z" />
<glyph unicode="&#x173;" glyph-name="uogonek" horiz-adv-x="601" d="M426 -200Q366 -200 340 -177T314 -117Q314 -80 338 -53T395 -7V53H389Q360 24 319 7T223 -11Q143 -11 109 29T74 139V437L5 453V511L186 529L199 522V173Q199 126 216 104T284 82Q322 82
345 90T389 106V437L323 453V511L502 529L515 522V85L583 69V13L472 -2Q448 -28 434 -52T419 -100Q419 -138 464 -138Q472 -138 479 -138T493 -136V-189Q480 -194 465 -197T426 -200Z" />
<glyph unicode="&#x174;" glyph-name="Wcircumflex" horiz-adv-x="964" d="M351 767L470 872H531L651 767L628 728L501 782L374 728L351 767ZM63 613L7 631V693H273V631L204 613L311 179H316L455 693H547L687 184H691L796 613L725 631V693H957V631L894 613L734
0H610L483 481H479L347 0H223L63 613Z" />
<glyph unicode="&#x175;" glyph-name="wcircumflex" horiz-adv-x="801" d="M269 611L385 737H446L563 611L536 574L416 645L295 574L269 611ZM49 450L1 464V521H234V464L177 450L259 159H263L376 521H462L574 159H578L660 450L605 464V521H799V464L751 450L614
0H511L406 351H403L288 0H186L49 450Z" />
<glyph unicode="&#x176;" glyph-name="Ycircumflex" horiz-adv-x="633" d="M172 62L254 80V296L62 613L4 631V693H272V631L209 614L347 375H351L479 614L413 631V693H629V631L572 613L393 297V80L473 62V0H172V62ZM189 767L308 872H369L489 767L466 728L339 782L212
728L189 767Z" />
<glyph unicode="&#x177;" glyph-name="ycircumflex" horiz-adv-x="555" d="M141 -201Q118 -201 94 -196T56 -183V-107Q73 -111 84 -113T109 -115Q148 -115 171 -100T212 -47L236 12L53 450L1 464V521H249V464L188 451L302 153H306L407 450L348 464V521H553V464L502
450L306 -69Q294 -102 279 -127T245 -168T200 -193T141 -201ZM152 611L268 737H329L446 611L419 574L299 645L178 574L152 611Z" />
<glyph unicode="&#x178;" glyph-name="Ydieresis" horiz-adv-x="633" d="M172 62L254 80V296L62 613L4 631V693H272V631L209 614L347 375H351L479 614L413 631V693H629V631L572 613L393 297V80L473 62V0H172V62ZM248 733Q221 733 201 751T181 798Q181 827 201
844T248 862Q276 862 296 845T316 798Q316 770 296 752T248 733ZM430 733Q402 733 382 751T362 798Q362 827 382 844T430 862Q458 862 477 845T497 798Q497 770 478 752T430 733Z" />
<glyph unicode="&#x179;" glyph-name="Zacute" horiz-adv-x="556" d="M14 73L378 610V614H148L105 490H30L41 693H540V620L175 83V79H426L471 210H544L534 0H14V73ZM203 726L183 778L381 883L422 787L203 726Z" />
<glyph unicode="&#x17a;" glyph-name="zacute" horiz-adv-x="485" d="M24 66L306 447V451H131L102 351H38L47 521H451V455L173 75V71H355L390 182H456L443 0H24V66ZM138 621L325 746L376 653L163 571L138 621Z" />
<glyph unicode="&#x17b;" glyph-name="Zdotaccent" horiz-adv-x="556" d="M286 733Q256 733 235 753T213 802Q213 832 234 851T286 870Q316 870 337 851T358 802Q358 773 337 753T286 733ZM14 73L378 610V614H148L105 490H30L41 693H540V620L175 83V79H426L471
210H544L534 0H14V73Z" />
<glyph unicode="&#x17c;" glyph-name="zdotaccent" horiz-adv-x="485" d="M247 595Q217 595 196 614T174 663Q174 693 195 712T247 732Q277 732 298 713T319 663Q319 634 298 615T247 595ZM24 66L306 447V451H131L102 351H38L47 521H451V455L173 75V71H355L390
182H456L443 0H24V66Z" />
<glyph unicode="&#x17d;" glyph-name="Zcaron" horiz-adv-x="556" d="M436 841L316 735H255L136 841L159 879L286 825L413 879L436 841ZM14 73L378 610V614H148L105 490H30L41 693H540V620L175 83V79H426L471 210H544L534 0H14V73Z" />
<glyph unicode="&#x17e;" glyph-name="zcaron" horiz-adv-x="485" d="M100 704L126 741L247 670L367 741L394 704L277 578H216L100 704ZM24 66L306 447V451H131L102 351H38L47 521H451V455L173 75V71H355L390 182H456L443 0H24V66Z" />
<glyph unicode="&#x192;" glyph-name="florin" horiz-adv-x="430" d="M38 418H127L147 535Q155 580 172 611T213 663T268 693T334 702Q371 702 394 696T433 682V611Q418 614 405 616T371 618Q328 618 306 596T274 515L256 418H369V341H243L174 -45Q160 -120 118
-151T10 -183Q-21 -183 -44 -177T-76 -165V-96Q-67 -98 -55 -99T-27 -100Q3 -100 21 -83T48 -23L113 341H38V418Z" />
<glyph unicode="&#x1fa;" glyph-name="Aringacute" horiz-adv-x="682" d="M1 63L65 80L282 693H405L617 80L681 63V0H393V62L467 80L423 217H207L161 80L237 62V0H1V63ZM229 285H402L320 541H315L229 285ZM340 1014Q362 1014 375 1027T388 1063Q388 1084 375 1098T340
1112Q318 1112 305 1098T292 1063Q292 1041 305 1028T340 1014ZM340 966Q295 966 267 994T238 1063Q238 1103 266 1131T340 1160Q384 1160 413 1132T442 1063Q442 1023 413 995T340 966ZM241 907L221 959L419 1064L460 968L241 907Z" />
<glyph unicode="&#x1fb;" glyph-name="aringacute" horiz-adv-x="500" d="M171 -13Q101 -13 58 25T15 129Q15 165 27 189T61 230T115 257T186 276L303 300V343Q303 369 299 387T283 416T250 433T193 438Q177 438 159 437T123 435T89 432T61 428V494Q77 501 99
507T146 519T198 527T254 531Q345 531 387 492T429 371V98Q429 75 440 69T472 62H494V8Q483 2 458 -4T403 -11Q368 -11 346 2T316 46H311Q291 23 257 5T171 -13ZM221 66Q247 66 269 75T303 96V231L221 225Q176 222 159 202T142 145Q142 107 160 87T221 66ZM249
865Q271 865 284 878T297 914Q297 935 284 948T249 962Q227 962 214 949T201 914Q201 891 214 878T249 865ZM249 817Q204 817 176 845T147 914Q147 954 175 982T249 1010Q293 1010 322 982T351 914Q351 874 322 846T249 817ZM409 765L389 817L587 922L628 826L409
765Z" />
<glyph unicode="&#x1fc;" glyph-name="AEacute" horiz-adv-x="947" d="M237 62V0H1V63L61 81L381 622L318 631V693H902L912 507H840L800 617H587V392H686L709 475H770V235H709L686 320H587V76H808L859 212H932L920 0H370V62L451 80V214H235L158 81L237 62ZM451
283V588H448L274 283H451ZM534 726L514 778L712 883L753 787L534 726Z" />
<glyph unicode="&#x1fd;" glyph-name="aeacute" horiz-adv-x="785" d="M175 -13Q102 -13 59 25T15 129Q15 200 60 233T186 281L303 303V343Q303 369 299 387T283 416T250 433T193 438Q177 438 159 437T123 435T89 432T61 428V494Q93 508 144 519T250 531Q353 531
388 469Q448 531 545 531Q661 531 712 460T763 248H430Q435 157 475 116T589 75Q616 75 637 77T676 83T709 91T738 101V37Q712 20 670 4T559 -12Q485 -12 435 10T352 75Q323 37 277 12T175 -13ZM327 118Q315 143 309 173T301 237L221 231Q176 228 159 205T142 145Q142
107 161 87T222 66Q247 66 273 78T327 118ZM631 318Q631 392 608 424T539 457Q490 457 463 423T430 311L631 318ZM319 621L506 746L557 653L344 571L319 621Z" />
<glyph unicode="&#x1fe;" glyph-name="Oslashacute" horiz-adv-x="694" d="M35 9L103 94Q66 139 46 201T25 345Q25 439 53 507T126 619T230 684T349 705Q461 705 541 645L595 713L650 674L590 599Q627 554 647 493T668 350Q668 256 641 188T568 76T464 10T345
-12Q232 -12 151 48L90 -29L35 9ZM347 70Q437 70 481 141T526 338Q526 433 508 496L216 129Q258 70 347 70ZM168 356Q168 308 172 269T185 197L476 564Q432 624 346 624Q256 624 212 552T168 356ZM260 726L240 778L438 883L479 787L260 726Z" />
<glyph unicode="&#x1ff;" glyph-name="oslashacute" horiz-adv-x="558" d="M16 10L75 79Q49 113 36 158T22 257Q22 320 42 371T96 457T178 512T278 531Q368 531 431 488L481 546L531 507L478 446Q506 411 521 366T536 263Q536 199 516 148T461 61T380 6T280 -13Q232
-13 192 -1T121 34L67 -28L16 10ZM281 62Q306 62 329 71T369 102T396 162T407 255Q407 284 405 308T397 352L184 107Q201 82 225 72T281 62ZM150 264Q150 237 152 215T158 174L369 417Q352 439 329 448T277 457Q252 457 229 448T189 417T161 358T150 264ZM168 621L355
746L406 653L193 571L168 621Z" />
<glyph unicode="&#x218;" glyph-name="Scommaaccent" horiz-adv-x="537" d="M253 -12Q192 -12 138 -3T46 22L38 191H114L144 95Q167 83 193 76T257 69Q319 69 349 99T380 172Q380 196 372 213T349 243T311 268T260 291L193 319Q160 332 133 348T87 386T58 439T47
510Q47 551 61 587T104 649T178 691T286 706Q351 706 394 698T467 680L475 523H400L376 604Q362 611 340 618T279 626Q231 626 200 605T168 539Q168 500 193 477T270 434L338 406Q376 391 407 375T462 337T497 282T510 205Q510 160 495 120T448 51T368 5T253 -12ZM203
-185Q210 -155 213 -119T216 -40H340Q335 -80 323 -118T289 -185H203V-185Z" />
<glyph unicode="&#x219;" glyph-name="scommaaccent" horiz-adv-x="443" d="M201 -13Q158 -13 113 -5T32 17L23 158H96L120 80Q133 73 155 67T208 60Q250 60 276 76T303 127Q303 160 284 175T218 204L162 220Q96 239 62 273T27 371Q27 404 39 433T77 484T141 518T232
531Q277 531 317 525T387 508V375H317L298 444Q286 450 269 454T224 459Q187 459 162 446T137 398Q137 369 156 354T226 324L285 307Q359 286 389 250T420 157Q420 121 407 90T367 36T299 0T201 -13ZM405 -185Q412 -155 415 -119T418 -40H542Q537 -80 525 -118T491
-185H405V-185Z" />
<glyph unicode="&#x21a;" glyph-name="uni021A" horiz-adv-x="620" d="M156 62L241 80V616H119L84 481H10L20 693H600L610 481H536L501 616H380V80L464 62V0H156V62ZM238 -185Q245 -155 248 -119T251 -40H375Q370 -80 358 -118T324 -185H238V-185Z" />
<glyph unicode="&#x21b;" glyph-name="uni021B" horiz-adv-x="359" d="M224 -10Q152 -10 116 19T79 123V443H12V496L90 521L108 643H205V521H330V443H205V146Q205 106 221 89T280 72Q295 72 309 74T338 79V20Q321 9 291 0T224 -10ZM383 -185Q390 -155 393 -119T396
-40H520Q515 -80 503 -118T469 -185H383V-185Z" />
<glyph unicode="&#x237;" glyph-name="uni0237" horiz-adv-x="278" d="M41 -197Q17 -197 -3 -193T-41 -182V-116Q-30 -118 -19 -118T4 -119Q40 -119 63 -102T87 -32V431L13 447V506L200 530L213 523V-37Q213 -115 171 -156T41 -197Z" />
<glyph unicode="&#x2c6;" glyph-name="circumflex" horiz-adv-x="492" d="M99 611L215 737H276L393 611L366 574L246 645L125 574L99 611Z" />
<glyph unicode="&#x2c7;" glyph-name="caron" horiz-adv-x="492" d="M99 704L125 741L246 670L366 741L393 704L276 578H215L99 704Z" />
<glyph unicode="&#x2d8;" glyph-name="breve" horiz-adv-x="492" d="M263 583Q232 583 207 593T163 621T133 663T121 717H196Q201 691 219 678T263 664Q319 664 331 717H405Q404 688 393 664T364 621T320 593T263 583Z" />
<glyph unicode="&#x2d9;" glyph-name="dotaccent" horiz-adv-x="492" d="M246 595Q216 595 195 614T173 663Q173 693 194 712T246 732Q276 732 297 713T318 663Q318 634 297 615T246 595Z" />
<glyph unicode="&#x2da;" glyph-name="ring" horiz-adv-x="492" d="M246 622Q268 622 281 635T294 671Q294 692 281 705T246 719Q224 719 211 706T198 671Q198 648 211 635T246 622ZM246 574Q201 574 173 602T144 671Q144 711 172 739T246 767Q290 767 319 739T348
671Q348 631 319 603T246 574Z" />
<glyph unicode="&#x2db;" glyph-name="ogonek" horiz-adv-x="507" d="M253 -200Q193 -200 167 -177T141 -117Q141 -96 149 -79T172 -47T203 -21T240 0H298Q275 -27 261 -51T246 -100Q246 -138 292 -138Q300 -138 307 -138T320 -136V-189Q307 -194 292 -197T253 -200Z" />
<glyph unicode="&#x2dc;" glyph-name="tilde" horiz-adv-x="492" d="M85 619Q105 664 132 690T195 717Q211 717 226 712T254 701T280 690T303 685Q319 685 331 693T357 723L408 694Q388 649 361 623T298 596Q281 596 267 601T239 612T213 623T190 628Q174 628
162 620T136 590L85 619Z" />
<glyph unicode="&#x2dd;" glyph-name="hungarumlaut" horiz-adv-x="492" d="M111 596L214 757L294 698L153 568L111 596ZM284 598L392 757L470 695L326 568L284 598Z" />
</font>
</defs>
</svg>
